<?xml version="1.0" standalone="no"?>
<!DOCTYPE svg PUBLIC "-//W3C//DTD SVG 20010904//EN"
 "http://www.w3.org/TR/2001/REC-SVG-20010904/DTD/svg10.dtd">
<svg version="1.0" xmlns="http://www.w3.org/2000/svg"
 width="121.000000pt" height="260.000000pt" viewBox="0 0 121.000000 260.000000"
 preserveAspectRatio="xMidYMid meet">
<metadata>
</metadata>
<g transform="translate(0.000000,260.000000) scale(0.100000,-0.100000)"
fill="#AD7B2A" stroke="none">
<path d="M758 2499 c-21 -12 -349 -16 -395 -4 -41 10 -43 -5 -8 -71 21 -40 25
-60 25 -135 0 -118 -15 -180 -56 -237 -125 -171 -178 -420 -123 -570 55 -150
79 -236 79 -285 1 -28 5 -72 10 -97 6 -34 3 -64 -12 -124 -11 -44 -26 -130
-34 -191 -14 -107 -14 -115 12 -300 32 -223 30 -248 -28 -311 -51 -55 -46 -74
20 -74 56 0 127 32 154 70 10 14 25 63 34 109 28 151 88 277 145 307 16 8 48
14 74 14 39 0 50 -5 86 -41 49 -49 88 -131 124 -260 30 -105 54 -139 120 -164
23 -9 61 -15 86 -13 36 2 45 7 47 24 2 15 -7 29 -28 44 -40 29 -70 89 -70 142
0 24 5 111 12 195 14 176 6 248 -46 433 -30 105 -33 125 -30 230 3 96 9 135
39 238 25 88 35 144 35 192 0 124 -73 322 -155 420 -52 62 -74 110 -85 187
-15 107 -12 169 10 213 11 22 20 46 20 55 0 17 -36 20 -62 4z"/>
</g>
</svg>
