<?xml version="1.0" encoding="UTF-8" standalone="no"?>
<svg
   xmlns:dc="http://purl.org/dc/elements/1.1/"
   xmlns:cc="http://creativecommons.org/ns#"
   xmlns:rdf="http://www.w3.org/1999/02/22-rdf-syntax-ns#"
   xmlns:svg="http://www.w3.org/2000/svg"
   xmlns="http://www.w3.org/2000/svg"
   viewBox="0 0 1378.7733 1378.7733"
   height="1378.7733"
   width="1378.7733"
   xml:space="preserve"
   id="svg2"
   version="1.1"><metadata
     id="metadata8"><rdf:RDF><cc:Work
         rdf:about=""><dc:format>image/svg+xml</dc:format><dc:type
           rdf:resource="http://purl.org/dc/dcmitype/StillImage" /></cc:Work></rdf:RDF></metadata><defs
     id="defs6"><clipPath
       id="clipPath20"
       clipPathUnits="userSpaceOnUse"><path
         id="path18"
         d="M 10340.8,0 H 0 v 10340.8 h 10340.8 z" /></clipPath><radialGradient
       id="radialGradient28"
       spreadMethod="pad"
       gradientTransform="matrix(5170.4,0,0,-5170.4,5170.41,5170.4)"
       gradientUnits="userSpaceOnUse"
       r="1"
       cy="0"
       cx="0"
       fy="0"
       fx="0"><stop
         id="stop22"
         offset="0"
         style="stop-opacity:1;stop-color:#ffffff" /><stop
         id="stop24"
         offset="0.49220535"
         style="stop-opacity:1;stop-color:#ffffff" /><stop
         id="stop26"
         offset="1"
         style="stop-opacity:1;stop-color:#e9e4d8" /></radialGradient><radialGradient
       id="radialGradient38"
       spreadMethod="pad"
       gradientTransform="matrix(5170.4,0,0,-5170.4,5170.41,5170.4)"
       gradientUnits="userSpaceOnUse"
       r="1"
       cy="0"
       cx="0"
       fy="0"
       fx="0"><stop
         id="stop32"
         offset="0"
         style="stop-opacity:1;stop-color:#fafbfb" /><stop
         id="stop34"
         offset="0.49220535"
         style="stop-opacity:1;stop-color:#fafbfb" /><stop
         id="stop36"
         offset="1"
         style="stop-opacity:1;stop-color:#e9e4d8" /></radialGradient><clipPath
       id="clipPath48"
       clipPathUnits="userSpaceOnUse"><path
         id="path46"
         d="M 0,10340.8 H 10340.8 V 0 H 0" /></clipPath></defs><g
     transform="matrix(1.3333333,0,0,-1.3333333,0,1378.7733)"
     id="g10"><g
       transform="scale(0.1)"
       id="g12"><g
         id="g14"><g
           clip-path="url(#clipPath20)"
           id="g16"><path
             id="path30"
             style="fill:url(#radialGradient28);fill-opacity:1;fill-rule:nonzero;stroke:none"
             d="M 0,0 H 10340.8 V 10340.8 H 0 Z" /><path
             id="path40"
             style="fill:url(#radialGradient38);fill-opacity:1;fill-rule:nonzero;stroke:none"
             d="M 0,0 H 10340.8 V 10340.8 H 0 Z" /></g></g><g
         id="g42"><g
           clip-path="url(#clipPath48)"
           id="g44"><path
             id="path50"
             style="fill:#fbfbf9;fill-opacity:1;fill-rule:nonzero;stroke:none"
             d="m 2870.11,2864.12 -121.17,209.86 121.17,209.86 h 242.34 l 121.17,-209.86 -121.17,-209.86 h -242.34" /><path
             id="path52"
             style="fill:#f5f5f5;fill-opacity:1;fill-rule:nonzero;stroke:none"
             d="m 3233.62,2234.49 -121.17,209.86 121.17,209.88 h 242.34 l 121.17,-209.88 -121.17,-209.86 h -242.34" /><path
             id="path54"
             style="fill:#ebede9;fill-opacity:1;fill-rule:nonzero;stroke:none"
             d="m 3233.62,1394.99 -121.17,209.87 121.17,209.88 h 242.34 l 121.17,-209.88 -121.17,-209.87 h -242.34" /><path
             id="path56"
             style="fill:#f6f5f2;fill-opacity:1;fill-rule:nonzero;stroke:none"
             d="m 3838.67,2024.62 121.17,-209.9 -121.17,-209.86 h -242.34 l -121.17,209.86 121.17,209.9 h 242.34" /><path
             id="path58"
             style="fill:#ebede9;fill-opacity:1;fill-rule:nonzero;stroke:none"
             d="M 2870.11,345.621 2748.94,135.699 2870.11,-74.1016 h 242.34 l 121.17,209.8006 -121.17,209.922 h -242.34" /><path
             id="path60"
             style="fill:#f1f0e7;fill-opacity:1;fill-rule:nonzero;stroke:none"
             d="M 3838.67,345.621 3959.84,135.699 3838.67,-74.1016 h -242.34 l -121.17,209.8006 121.17,209.922 h 242.34" /><path
             id="path62"
             style="fill:#fcfcfc;fill-opacity:1;fill-rule:nonzero;stroke:none"
             d="m 4564.49,2024.62 121.18,209.87 -121.18,209.86 h -242.33 l -121.17,-209.86 121.17,-209.87 h 242.33" /><path
             id="path64"
             style="fill:#f6f5f2;fill-opacity:1;fill-rule:nonzero;stroke:none"
             d="M 4200.99,555.5 4322.16,765.371 4200.99,975.25 H 3958.65 L 3837.48,765.371 3958.65,555.5 h 242.34" /><path
             id="path66"
             style="fill:#e6e6e6;fill-opacity:1;fill-rule:nonzero;stroke:none"
             d="M 4200.99,-284 4322.16,-74.1016 4200.99,135.801 H 3958.65 L 3837.48,-74.1016 3958.65,-284 h 242.34" /><path
             id="path68"
             style="fill:#e8e6e6;fill-opacity:1;fill-rule:nonzero;stroke:none"
             d="M 4564.49,345.621 4685.67,135.699 4564.49,-74.1016 h -242.33 l -121.17,209.8006 121.17,209.922 h 242.33" /><path
             id="path70"
             style="fill:#f6f5f2;fill-opacity:1;fill-rule:nonzero;stroke:none"
             d="m 2143.89,4123.35 -121.18,209.89 121.18,209.86 h 242.34 l 121.17,-209.86 -121.17,-209.89 h -242.34" /><path
             id="path72"
             style="fill:#f6f5f2;fill-opacity:1;fill-rule:nonzero;stroke:none"
             d="m 2748.94,3073.98 121.17,209.86 -121.17,209.88 H 2506.6 l -121.17,-209.88 121.17,-209.86 h 242.34" /><path
             id="path74"
             style="fill:#f8f8f6;fill-opacity:1;fill-rule:nonzero;stroke:none"
             d="m 2143.89,2864.12 -121.18,209.86 121.18,209.86 h 242.34 l 121.17,-209.86 -121.17,-209.86 h -242.34" /><path
             id="path76"
             style="fill:#fcfcfc;fill-opacity:1;fill-rule:nonzero;stroke:none"
             d="m 2143.89,5382.59 -121.18,-209.88 121.18,-209.86 h 242.34 l 121.17,209.86 -121.17,209.88 h -242.34" /><path
             id="path78"
             style="fill:#f5f5f5;fill-opacity:1;fill-rule:nonzero;stroke:none"
             d="m 2143.89,4543.1 -121.18,209.86 121.18,209.89 h 242.34 L 2507.4,4752.96 2386.23,4543.1 h -242.34" /><path
             id="path80"
             style="fill:#f8f8f6;fill-opacity:1;fill-rule:nonzero;stroke:none"
             d="m 2143.89,5382.59 -121.18,209.88 121.18,209.86 h 242.34 l 121.17,-209.86 -121.17,-209.88 h -242.34" /><path
             id="path82"
             style="fill:#f6f5f2;fill-opacity:1;fill-rule:nonzero;stroke:none"
             d="m 2748.94,2234.49 121.17,-209.87 -121.17,-209.88 H 2506.6 l -121.17,209.88 121.17,209.87 h 242.34" /><path
             id="path84"
             style="fill:#f1f0e7;fill-opacity:1;fill-rule:nonzero;stroke:none"
             d="m 2748.94,2234.49 121.17,209.86 -121.17,209.88 H 2506.6 l -121.17,-209.88 121.17,-209.86 h 242.34" /><path
             id="path86"
             style="fill:#f0f0f0;fill-opacity:1;fill-rule:nonzero;stroke:none"
             d="m 2143.89,1185.11 -121.18,209.88 121.18,209.87 h 242.34 l 121.17,-209.87 -121.17,-209.88 h -242.34" /><path
             id="path88"
             style="fill:#f0f0f0;fill-opacity:1;fill-rule:nonzero;stroke:none"
             d="m 2748.94,3073.98 121.17,-209.86 -121.17,-209.89 H 2506.6 l -121.17,209.89 121.17,209.86 h 242.34" /><path
             id="path90"
             style="fill:#e6e6e6;fill-opacity:1;fill-rule:nonzero;stroke:none"
             d="M 2143.89,345.621 2022.71,135.699 2143.89,-74.1016 h 242.34 L 2507.4,135.699 2386.23,345.621 h -242.34" /><path
             id="path92"
             style="fill:#e8eae6;fill-opacity:1;fill-rule:nonzero;stroke:none"
             d="m 1781.57,3913.47 -121.17,209.88 121.17,209.87 h 242.34 l 121.17,-209.87 -121.17,-209.88 h -242.34" /><path
             id="path94"
             style="fill:#f0f2ef;fill-opacity:1;fill-rule:nonzero;stroke:none"
             d="m 1781.57,3913.47 -121.17,-209.86 121.17,-209.89 h 242.34 l 121.17,209.89 -121.17,209.86 h -242.34" /><path
             id="path96"
             style="fill:#f8f8f6;fill-opacity:1;fill-rule:nonzero;stroke:none"
             d="m 1418.06,4123.35 -121.17,-209.88 121.17,-209.86 h 242.34 l 121.17,209.86 -121.17,209.88 h -242.34" /><path
             id="path98"
             style="fill:#f1f0e7;fill-opacity:1;fill-rule:nonzero;stroke:none"
             d="m 1418.06,3703.61 -121.17,-209.89 121.17,-209.88 h 242.34 l 121.17,209.88 -121.17,209.89 h -242.34" /><path
             id="path100"
             style="fill:#e8eae6;fill-opacity:1;fill-rule:nonzero;stroke:none"
             d="m 1418.06,2864.12 -121.17,209.86 121.17,209.86 h 242.34 l 121.17,-209.86 -121.17,-209.86 h -242.34" /><path
             id="path102"
             style="fill:#f1f0e7;fill-opacity:1;fill-rule:nonzero;stroke:none"
             d="m 1781.57,5592.47 -121.17,-209.88 121.17,-209.88 h 242.34 l 121.17,209.88 -121.17,209.88 h -242.34" /><path
             id="path104"
             style="fill:#fcfcfc;fill-opacity:1;fill-rule:nonzero;stroke:none"
             d="m 1781.57,5592.47 -121.17,209.86 121.17,209.88 h 242.34 l 121.17,-209.88 -121.17,-209.86 h -242.34" /><path
             id="path106"
             style="fill:#f0f2ef;fill-opacity:1;fill-rule:nonzero;stroke:none"
             d="m 1418.06,5382.59 -121.17,209.88 121.17,209.86 h 242.34 l 121.17,-209.86 -121.17,-209.88 h -242.34" /><path
             id="path108"
             style="fill:#f0f2ef;fill-opacity:1;fill-rule:nonzero;stroke:none"
             d="m 1781.57,2234.49 -121.17,209.86 121.17,209.88 h 242.34 l 121.17,-209.88 -121.17,-209.86 h -242.34" /><path
             id="path110"
             style="fill:#e7e4d9;fill-opacity:1;fill-rule:nonzero;stroke:none"
             d="m 1418.06,2024.62 -121.17,-209.9 121.17,-209.86 h 242.34 l 121.17,209.86 -121.17,209.9 h -242.34" /><path
             id="path112"
             style="fill:#f8f8f6;fill-opacity:1;fill-rule:nonzero;stroke:none"
             d="m 1418.06,1185.11 -121.17,209.88 121.17,209.87 h 242.34 l 121.17,-209.87 -121.17,-209.88 h -242.34" /><path
             id="path114"
             style="fill:#ebede9;fill-opacity:1;fill-rule:nonzero;stroke:none"
             d="m 1418.06,2444.37 -121.17,209.86 121.17,209.89 h 242.34 l 121.17,-209.89 -121.17,-209.86 h -242.34" /><path
             id="path116"
             style="fill:#f7f6f3;fill-opacity:1;fill-rule:nonzero;stroke:none"
             d="M 1781.57,555.5 1660.4,345.621 1781.57,135.801 h 242.34 l 121.17,209.82 -121.17,209.879 h -242.34" /><path
             id="path118"
             style="fill:#e7e4d9;fill-opacity:1;fill-rule:nonzero;stroke:none"
             d="m 1418.06,765.379 -121.17,209.871 121.17,209.86 H 1660.4 L 1781.57,975.25 1660.4,765.379 h -242.34" /><path
             id="path120"
             style="fill:#f0eee8;fill-opacity:1;fill-rule:nonzero;stroke:none"
             d="M 1781.57,-284 1660.4,-74.1016 1781.57,135.801 h 242.34 L 2145.08,-74.1016 2023.91,-284 h -242.34" /><path
             id="path122"
             style="fill:#e6e6e6;fill-opacity:1;fill-rule:nonzero;stroke:none"
             d="M 208.352,4123.35 329.52,3913.47 208.352,3703.61 H -33.9883 L -155.16,3913.47 -33.9883,4123.35 H 208.352" /><path
             id="path124"
             style="fill:#f0eee8;fill-opacity:1;fill-rule:nonzero;stroke:none"
             d="M 208.352,2864.12 329.52,3073.98 208.352,3283.84 H -33.9883 L -155.16,3073.98 -33.9883,2864.12 H 208.352" /><path
             id="path126"
             style="fill:#ebede9;fill-opacity:1;fill-rule:nonzero;stroke:none"
             d="M 208.352,5382.59 329.52,5172.71 208.352,4962.85 H -33.9883 L -155.16,5172.71 -33.9883,5382.59 H 208.352" /><path
             id="path128"
             style="fill:#ece9e2;fill-opacity:1;fill-rule:nonzero;stroke:none"
             d="M 208.352,5382.59 329.52,5592.47 208.352,5802.33 H -33.9883 L -155.16,5592.47 -33.9883,5382.59 H 208.352" /><path
             id="path130"
             style="fill:#f1f0e7;fill-opacity:1;fill-rule:nonzero;stroke:none"
             d="M 208.352,4543.1 329.52,4752.96 208.352,4962.85 H -33.9883 L -155.16,4752.96 -33.9883,4543.1 H 208.352" /><path
             id="path132"
             style="fill:#e8e6e6;fill-opacity:1;fill-rule:nonzero;stroke:none"
             d="M 208.352,345.621 329.52,135.699 208.352,-74.1016 H -33.9883 L -155.16,135.699 -33.9883,345.621 H 208.352" /><path
             id="path134"
             style="fill:#f0f0f0;fill-opacity:1;fill-rule:nonzero;stroke:none"
             d="M 329.52,3913.47 208.352,4123.35 329.52,4333.22 H 571.863 L 693.031,4123.35 571.863,3913.47 H 329.52" /><path
             id="path136"
             style="fill:#e8eae6;fill-opacity:1;fill-rule:nonzero;stroke:none"
             d="M 329.52,3913.47 208.352,3703.61 329.52,3493.72 h 242.343 l 121.168,209.89 -121.168,209.86 H 329.52" /><path
             id="path138"
             style="fill:#e7e4d9;fill-opacity:1;fill-rule:nonzero;stroke:none"
             d="M 934.574,4123.35 1055.75,4333.24 934.574,4543.1 H 692.234 L 571.062,4333.24 692.234,4123.35 h 242.34" /><path
             id="path140"
             style="fill:#ece9e2;fill-opacity:1;fill-rule:nonzero;stroke:none"
             d="m 934.574,4543.1 121.176,209.86 -121.176,209.89 H 692.234 L 571.062,4752.96 692.234,4543.1 h 242.34" /><path
             id="path142"
             style="fill:#e6e6e6;fill-opacity:1;fill-rule:nonzero;stroke:none"
             d="M 329.52,6431.95 208.352,6222.08 329.52,6012.21 h 242.343 l 121.168,209.87 -121.168,209.87 H 329.52" /><path
             id="path144"
             style="fill:#ece9e2;fill-opacity:1;fill-rule:nonzero;stroke:none"
             d="M 329.52,2234.49 208.352,2024.62 329.52,1814.74 h 242.343 l 121.168,209.88 -121.168,209.87 H 329.52" /><path
             id="path146"
             style="fill:#e7e4d9;fill-opacity:1;fill-rule:nonzero;stroke:none"
             d="M 329.52,2234.49 208.352,2444.35 329.52,2654.23 H 571.863 L 693.031,2444.35 571.863,2234.49 H 329.52" /><path
             id="path148"
             style="fill:#e8eae6;fill-opacity:1;fill-rule:nonzero;stroke:none"
             d="m 934.574,1185.11 121.176,209.88 -121.176,209.87 H 692.234 L 571.062,1394.99 692.234,1185.11 h 242.34" /><path
             id="path150"
             style="fill:#f0f0f0;fill-opacity:1;fill-rule:nonzero;stroke:none"
             d="m 934.574,2024.62 121.176,209.87 -121.176,209.86 H 692.234 L 571.062,2234.49 692.234,2024.62 h 242.34" /><path
             id="path152"
             style="fill:#e7e4d9;fill-opacity:1;fill-rule:nonzero;stroke:none"
             d="M 329.52,555.5 208.352,345.621 329.52,135.801 H 571.863 L 693.031,345.621 571.863,555.5 H 329.52" /><path
             id="path154"
             style="fill:#ebede9;fill-opacity:1;fill-rule:nonzero;stroke:none"
             d="m 1296.89,3913.47 121.17,209.88 -121.17,209.87 H 1054.55 L 933.383,4123.35 1054.55,3913.47 h 242.34" /><path
             id="path156"
             style="fill:#e7e4d9;fill-opacity:1;fill-rule:nonzero;stroke:none"
             d="m 1296.89,3913.47 121.17,-209.86 -121.17,-209.89 h -242.34 l -121.167,209.89 121.167,209.86 h 242.34" /><path
             id="path158"
             style="fill:#e8eae6;fill-opacity:1;fill-rule:nonzero;stroke:none"
             d="m 1296.89,5592.47 121.17,-209.88 -121.17,-209.88 h -242.34 l -121.167,209.88 121.167,209.88 h 242.34" /><path
             id="path160"
             style="fill:#f0eee8;fill-opacity:1;fill-rule:nonzero;stroke:none"
             d="M 1296.89,555.5 1418.06,765.371 1296.89,975.25 H 1054.55 L 933.383,765.371 1054.55,555.5 h 242.34" /><path
             id="path162"
             style="fill:#e6e6e6;fill-opacity:1;fill-rule:nonzero;stroke:none"
             d="M 1296.89,-284 1418.06,-74.1016 1296.89,135.801 H 1054.55 L 933.383,-74.1016 1054.55,-284 h 242.34" /><path
             id="path164"
             style="fill:#f0f2ef;fill-opacity:1;fill-rule:nonzero;stroke:none"
             d="m 5653.03,2234.49 121.16,-209.87 -121.16,-209.88 h -242.34 l -121.16,209.88 121.16,209.87 h 242.34" /><path
             id="path166"
             style="fill:#fcfcfc;fill-opacity:1;fill-rule:nonzero;stroke:none"
             d="m 5047.98,1185.11 -121.17,209.88 121.17,209.87 h 242.34 l 121.18,-209.87 -121.18,-209.88 h -242.34" /><path
             id="path168"
             style="fill:#e8e6e6;fill-opacity:1;fill-rule:nonzero;stroke:none"
             d="M 6016.54,765.379 6137.71,555.5 6016.54,345.621 H 5774.19 L 5653.03,555.5 5774.19,765.379 h 242.35" /><path
             id="path170"
             style="fill:#ebede9;fill-opacity:1;fill-rule:nonzero;stroke:none"
             d="M 6016.54,345.621 6137.71,135.699 6016.54,-74.1016 h -242.35 l -121.16,209.8006 121.16,209.922 h 242.35" /><path
             id="path172"
             style="fill:#ebede9;fill-opacity:1;fill-rule:nonzero;stroke:none"
             d="M 4685.66,555.5 4564.49,765.371 4685.66,975.25 H 4928 L 5049.17,765.371 4928,555.5 h -242.34" /><path
             id="path174"
             style="fill:#f0f0f0;fill-opacity:1;fill-rule:nonzero;stroke:none"
             d="M 4685.66,-284 4564.49,-74.1016 4685.66,135.801 H 4928 L 5049.17,-74.1016 4928,-284 h -242.34" /><path
             id="path176"
             style="fill:#fefefe;fill-opacity:1;fill-rule:nonzero;stroke:none"
             d="m 6137.71,1394.99 -121.17,209.87 121.17,209.88 h 242.34 l 121.18,-209.88 -121.18,-209.87 h -242.34" /><path
             id="path178"
             style="fill:#e7e4d9;fill-opacity:1;fill-rule:nonzero;stroke:none"
             d="m 6137.71,555.5 -121.17,-209.879 121.17,-209.82 h 242.34 l 121.18,209.82 -121.18,209.879 h -242.34" /><path
             id="path180"
             style="fill:#f0f2ef;fill-opacity:1;fill-rule:nonzero;stroke:none"
             d="m 7105.07,2234.49 121.18,-209.87 -121.18,-209.88 h -242.32 l -121.17,209.88 121.17,209.87 h 242.32" /><path
             id="path182"
             style="fill:#fbfbf9;fill-opacity:1;fill-rule:nonzero;stroke:none"
             d="m 7105.07,3073.98 121.18,-209.86 -121.18,-209.89 h -242.32 l -121.17,209.89 121.17,209.86 h 242.32" /><path
             id="path184"
             style="fill:#f1f0e7;fill-opacity:1;fill-rule:nonzero;stroke:none"
             d="m 7468.59,765.379 121.17,209.871 -121.17,209.86 H 7226.25 L 7105.07,975.25 7226.25,765.379 h 242.34" /><path
             id="path186"
             style="fill:#e7e4d9;fill-opacity:1;fill-rule:nonzero;stroke:none"
             d="M 7105.07,-284 7226.25,-74.1016 7105.07,135.801 H 6862.75 L 6741.58,-74.1016 6862.75,-284 h 242.32" /><path
             id="path188"
             style="fill:#e6e6e6;fill-opacity:1;fill-rule:nonzero;stroke:none"
             d="M 7468.59,345.621 7589.76,135.699 7468.59,-74.1016 h -242.34 l -121.18,209.8006 121.18,209.922 h 242.34" /><path
             id="path190"
             style="fill:#f0f2ef;fill-opacity:1;fill-rule:nonzero;stroke:none"
             d="m 9041.81,3913.47 -121.17,-209.86 121.17,-209.89 h 242.35 l 121.17,209.89 -121.17,209.86 h -242.35" /><path
             id="path192"
             style="fill:#f0eee8;fill-opacity:1;fill-rule:nonzero;stroke:none"
             d="m 8678.3,4123.35 -121.18,209.89 121.18,209.86 h 242.34 l 121.17,-209.86 -121.17,-209.89 H 8678.3" /><path
             id="path194"
             style="fill:#e8eae6;fill-opacity:1;fill-rule:nonzero;stroke:none"
             d="m 8678.3,2864.12 -121.18,209.86 121.18,209.86 h 242.34 l 121.17,-209.86 -121.17,-209.86 H 8678.3" /><path
             id="path196"
             style="fill:#f7f6f3;fill-opacity:1;fill-rule:nonzero;stroke:none"
             d="m 9041.81,5592.47 -121.17,-209.88 121.17,-209.88 h 242.35 l 121.17,209.88 -121.17,209.88 h -242.35" /><path
             id="path198"
             style="fill:#fcfcfc;fill-opacity:1;fill-rule:nonzero;stroke:none"
             d="m 9041.81,5592.47 -121.17,209.86 121.17,209.88 h 242.35 l 121.17,-209.88 -121.17,-209.86 h -242.35" /><path
             id="path200"
             style="fill:#ebede9;fill-opacity:1;fill-rule:nonzero;stroke:none"
             d="m 9646.85,5382.59 121.19,-209.88 -121.19,-209.86 h -242.32 l -121.18,209.86 121.18,209.88 h 242.32" /><path
             id="path202"
             style="fill:#e8eae6;fill-opacity:1;fill-rule:nonzero;stroke:none"
             d="m 9041.81,6431.95 -121.17,-209.87 121.17,-209.87 h 242.35 l 121.17,209.87 -121.17,209.87 h -242.35" /><path
             id="path204"
             style="fill:#ece9e2;fill-opacity:1;fill-rule:nonzero;stroke:none"
             d="m 9646.85,5802.34 121.19,209.88 -121.19,209.86 h -242.32 l -121.18,-209.86 121.18,-209.88 h 242.32" /><path
             id="path206"
             style="fill:#e6e6e6;fill-opacity:1;fill-rule:nonzero;stroke:none"
             d="m 9041.81,2234.49 -121.17,209.86 121.17,209.88 h 242.35 l 121.17,-209.88 -121.17,-209.86 h -242.35" /><path
             id="path208"
             style="fill:#ebede9;fill-opacity:1;fill-rule:nonzero;stroke:none"
             d="m 9041.81,1394.99 -121.17,209.87 121.17,209.88 h 242.35 l 121.17,-209.88 -121.17,-209.87 h -242.35" /><path
             id="path210"
             style="fill:#e8e6e6;fill-opacity:1;fill-rule:nonzero;stroke:none"
             d="m 8678.3,1185.11 -121.18,209.88 121.18,209.87 h 242.34 l 121.17,-209.87 -121.17,-209.88 H 8678.3" /><path
             id="path212"
             style="fill:#f1f0e7;fill-opacity:1;fill-rule:nonzero;stroke:none"
             d="m 9646.85,2024.62 121.19,209.87 -121.19,209.86 h -242.32 l -121.18,-209.86 121.18,-209.87 h 242.32" /><path
             id="path214"
             style="fill:#e7e4d9;fill-opacity:1;fill-rule:nonzero;stroke:none"
             d="m 9646.85,765.379 121.19,209.871 -121.19,209.86 H 9404.53 L 9283.35,975.25 9404.53,765.379 h 242.32" /><path
             id="path216"
             style="fill:#ebede9;fill-opacity:1;fill-rule:nonzero;stroke:none"
             d="m 9041.81,-284 -121.17,209.8984 121.17,209.9026 h 242.35 L 9405.33,-74.1016 9284.16,-284 h -242.35" /><path
             id="path218"
             style="fill:#e7e4d9;fill-opacity:1;fill-rule:nonzero;stroke:none"
             d="M 8678.3,345.621 8557.12,135.699 8678.3,-74.1016 h 242.34 L 9041.81,135.699 8920.64,345.621 H 8678.3" /><path
             id="path220"
             style="fill:#e8eae6;fill-opacity:1;fill-rule:nonzero;stroke:none"
             d="m 10009.2,3913.47 121.1,209.88 -121.1,209.87 h -242.35 l -121.17,-209.87 121.17,-209.88 h 242.35" /><path
             id="path222"
             style="fill:#e7e4d9;fill-opacity:1;fill-rule:nonzero;stroke:none"
             d="m 10372.7,4123.35 121.2,-209.88 -121.2,-209.86 h -242.4 l -121.1,209.86 121.1,209.88 h 242.4" /><path
             id="path224"
             style="fill:#ece9e2;fill-opacity:1;fill-rule:nonzero;stroke:none"
             d="m 10009.2,1394.99 121.1,209.87 -121.1,209.88 h -242.35 l -121.17,-209.88 121.17,-209.87 h 242.35" /><path
             id="path226"
             style="fill:#ebede9;fill-opacity:1;fill-rule:nonzero;stroke:none"
             d="m 10372.7,2024.62 121.2,209.87 -121.2,209.86 h -242.4 l -121.1,-209.86 121.1,-209.87 h 242.4" /><path
             id="path228"
             style="fill:#e8e6e6;fill-opacity:1;fill-rule:nonzero;stroke:none"
             d="m 10372.7,2444.37 121.2,209.86 -121.2,209.89 h -242.4 l -121.1,-209.89 121.1,-209.86 h 242.4" /><path
             id="path230"
             style="fill:#ebede9;fill-opacity:1;fill-rule:nonzero;stroke:none"
             d="m 10009.2,555.5 121.1,209.871 -121.1,209.879 H 9766.85 L 9645.68,765.371 9766.85,555.5 h 242.35" /><path
             id="path232"
             style="fill:#e6e6e6;fill-opacity:1;fill-rule:nonzero;stroke:none"
             d="M 10372.7,765.379 10493.9,555.5 10372.7,345.621 h -242.4 l -121.1,209.879 121.1,209.879 h 242.4" /><path
             id="path234"
             style="fill:#e8e6e6;fill-opacity:1;fill-rule:nonzero;stroke:none"
             d="m 10009.2,-284 121.1,209.8984 -121.1,209.9026 H 9766.85 L 9645.68,-74.1016 9766.85,-284 h 242.35" /><path
             id="path236"
             style="fill:#e7e4d9;fill-opacity:1;fill-rule:nonzero;stroke:none"
             d="m 10372.7,345.621 121.2,-209.922 -121.2,-209.8006 h -242.4 l -121.1,209.8006 121.1,209.922 h 242.4" /><path
             id="path238"
             style="fill:#ebede9;fill-opacity:1;fill-rule:nonzero;stroke:none"
             d="m 8557.12,3913.47 121.18,209.88 -121.18,209.87 h -242.34 l -121.17,-209.87 121.17,-209.88 h 242.34" /><path
             id="path240"
             style="fill:#f8f8f6;fill-opacity:1;fill-rule:nonzero;stroke:none"
             d="M 8557.12,4752.96 8678.3,4543.1 8557.12,4333.22 h -242.34 l -121.17,209.88 121.17,209.86 h 242.34" /><path
             id="path242"
             style="fill:#edebe3;fill-opacity:1;fill-rule:nonzero;stroke:none"
             d="m 7952.07,4123.35 -121.18,-209.88 121.18,-209.86 h 242.36 l 121.15,209.86 -121.15,209.88 h -242.36" /><path
             id="path244"
             style="fill:#fbfbf9;fill-opacity:1;fill-rule:nonzero;stroke:none"
             d="m 8557.12,3073.98 121.18,209.86 -121.18,209.88 h -242.34 l -121.17,-209.88 121.17,-209.86 h 242.34" /><path
             id="path246"
             style="fill:#f7f6f3;fill-opacity:1;fill-rule:nonzero;stroke:none"
             d="m 7952.07,2864.12 -121.18,209.86 121.18,209.86 h 242.36 l 121.15,-209.86 -121.15,-209.86 h -242.36" /><path
             id="path248"
             style="fill:#ece9e2;fill-opacity:1;fill-rule:nonzero;stroke:none"
             d="m 8557.12,5592.47 121.18,-209.88 -121.18,-209.88 h -242.34 l -121.17,209.88 121.17,209.88 h 242.34" /><path
             id="path250"
             style="fill:#f6f5f2;fill-opacity:1;fill-rule:nonzero;stroke:none"
             d="m 8557.12,5592.47 121.18,209.86 -121.18,209.88 h -242.34 l -121.17,-209.88 121.17,-209.86 h 242.34" /><path
             id="path252"
             style="fill:#fefefe;fill-opacity:1;fill-rule:nonzero;stroke:none"
             d="m 7952.07,5802.34 -121.18,209.88 121.18,209.86 h 242.36 l 121.15,-209.86 -121.15,-209.88 h -242.36" /><path
             id="path254"
             style="fill:#fefefe;fill-opacity:1;fill-rule:nonzero;stroke:none"
             d="m 8557.12,2234.49 121.18,209.86 -121.18,209.88 h -242.34 l -121.17,-209.88 121.17,-209.86 h 242.34" /><path
             id="path256"
             style="fill:#e8eae6;fill-opacity:1;fill-rule:nonzero;stroke:none"
             d="m 8557.12,1394.99 121.18,209.87 -121.18,209.88 h -242.34 l -121.17,-209.88 121.17,-209.87 h 242.34" /><path
             id="path258"
             style="fill:#ece9e2;fill-opacity:1;fill-rule:nonzero;stroke:none"
             d="m 7952.07,2024.62 -121.18,-209.9 121.18,-209.86 h 242.36 l 121.15,209.86 -121.15,209.9 h -242.36" /><path
             id="path260"
             style="fill:#f1f4f0;fill-opacity:1;fill-rule:nonzero;stroke:none"
             d="m 7952.07,2024.62 -121.18,209.87 121.18,209.86 h 242.36 l 121.15,-209.86 -121.15,-209.87 h -242.36" /><path
             id="path262"
             style="fill:#e6e6e6;fill-opacity:1;fill-rule:nonzero;stroke:none"
             d="M 8557.12,555.5 8678.3,765.371 8557.12,975.25 H 8314.78 L 8193.61,765.371 8314.78,555.5 h 242.34" /><path
             id="path264"
             style="fill:#f0eee8;fill-opacity:1;fill-rule:nonzero;stroke:none"
             d="M 8557.12,555.5 8678.3,345.621 8557.12,135.801 h -242.34 l -121.17,209.82 121.17,209.879 h 242.34" /><path
             id="path266"
             style="fill:#e7e4d9;fill-opacity:1;fill-rule:nonzero;stroke:none"
             d="M 8557.12,1394.99 8678.3,1185.11 8557.12,975.25 h -242.34 l -121.17,209.86 121.17,209.88 h 242.34" /><path
             id="path268"
             style="fill:#ebede9;fill-opacity:1;fill-rule:nonzero;stroke:none"
             d="m 7589.76,2234.49 -121.17,-209.87 121.17,-209.88 h 242.34 l 121.18,209.88 -121.18,209.87 h -242.34" /><path
             id="path270"
             style="fill:#f0eee8;fill-opacity:1;fill-rule:nonzero;stroke:none"
             d="m 7589.76,2234.49 -121.17,209.86 121.17,209.88 h 242.34 l 121.18,-209.88 -121.18,-209.86 h -242.34" /><path
             id="path272"
             style="fill:#f8f8f6;fill-opacity:1;fill-rule:nonzero;stroke:none"
             d="m 7589.76,1394.99 -121.17,209.87 121.17,209.88 h 242.34 l 121.18,-209.88 -121.18,-209.87 h -242.34" /><path
             id="path274"
             style="fill:#e7e4d9;fill-opacity:1;fill-rule:nonzero;stroke:none"
             d="M 7589.76,555.5 7468.59,765.371 7589.76,975.25 H 7832.1 L 7953.28,765.371 7832.1,555.5 h -242.34" /><path
             id="path276"
             style="fill:#e8e6e6;fill-opacity:1;fill-rule:nonzero;stroke:none"
             d="M 7589.76,555.5 7468.59,345.621 7589.76,135.801 H 7832.1 L 7953.28,345.621 7832.1,555.5 h -242.34" /><path
             id="path278"
             style="fill:#e7e4d9;fill-opacity:1;fill-rule:nonzero;stroke:none"
             d="m 7589.76,1394.99 -121.17,-209.88 121.17,-209.86 h 242.34 l 121.18,209.86 -121.18,209.88 h -242.34" /><path
             id="path280"
             style="fill:#f0f0f0;fill-opacity:1;fill-rule:nonzero;stroke:none"
             d="M 7589.76,-284 7468.59,-74.1016 7589.76,135.801 H 7832.1 L 7953.28,-74.1016 7832.1,-284 h -242.34" /><path
             id="path282"
             style="fill:#ece9e2;fill-opacity:1;fill-rule:nonzero;stroke:none"
             d="m 3233.62,8530.69 -121.17,209.88 121.17,209.87 h 242.34 l 121.17,-209.87 -121.17,-209.88 h -242.34" /><path
             id="path284"
             style="fill:#f1f0e7;fill-opacity:1;fill-rule:nonzero;stroke:none"
             d="m 3233.62,7691.2 -121.17,209.87 121.17,209.88 h 242.34 l 121.17,-209.88 -121.17,-209.87 h -242.34" /><path
             id="path286"
             style="fill:#fcfcfc;fill-opacity:1;fill-rule:nonzero;stroke:none"
             d="m 2870.11,8320.82 -121.17,-209.88 121.17,-209.87 h 242.34 l 121.17,209.87 -121.17,209.88 h -242.34" /><path
             id="path288"
             style="fill:#e8eae6;fill-opacity:1;fill-rule:nonzero;stroke:none"
             d="m 3838.67,8320.82 121.17,-209.88 -121.17,-209.87 h -242.34 l -121.17,209.87 121.17,209.88 h 242.34" /><path
             id="path290"
             style="fill:#f8f8f6;fill-opacity:1;fill-rule:nonzero;stroke:none"
             d="m 3838.67,8320.82 121.17,209.87 -121.17,209.88 h -242.34 l -121.17,-209.88 121.17,-209.87 h 242.34" /><path
             id="path292"
             style="fill:#f0f2ef;fill-opacity:1;fill-rule:nonzero;stroke:none"
             d="m 2870.11,8740.57 -121.17,209.87 121.17,209.88 h 242.34 l 121.17,-209.88 -121.17,-209.87 h -242.34" /><path
             id="path294"
             style="fill:#e8eae6;fill-opacity:1;fill-rule:nonzero;stroke:none"
             d="m 2870.11,9580.06 -121.17,-209.87 121.17,-209.87 h 242.34 l 121.17,209.87 -121.17,209.87 h -242.34" /><path
             id="path296"
             style="fill:#f1f4f0;fill-opacity:1;fill-rule:nonzero;stroke:none"
             d="m 2870.11,7901.08 -121.17,-209.87 121.17,-209.88 h 242.34 l 121.17,209.88 -121.17,209.87 h -242.34" /><path
             id="path298"
             style="fill:#f0f0f0;fill-opacity:1;fill-rule:nonzero;stroke:none"
             d="m 3838.67,7901.08 121.17,-209.87 -121.17,-209.88 h -242.34 l -121.17,209.88 121.17,209.87 h 242.34" /><path
             id="path300"
             style="fill:#fbfbf9;fill-opacity:1;fill-rule:nonzero;stroke:none"
             d="m 2870.11,10419.6 -121.17,-209.9 121.17,-209.89 h 242.34 l 121.17,209.89 -121.17,209.9 h -242.34" /><path
             id="path302"
             style="fill:#f1f4f0;fill-opacity:1;fill-rule:nonzero;stroke:none"
             d="m 3233.62,9370.19 -121.17,209.87 121.17,209.88 h 242.34 l 121.17,-209.88 -121.17,-209.87 h -242.34" /><path
             id="path304"
             style="fill:#f6f5f2;fill-opacity:1;fill-rule:nonzero;stroke:none"
             d="m 4200.99,8530.69 121.17,-209.87 -121.17,-209.87 h -242.34 l -121.17,209.87 121.17,209.87 h 242.34" /><path
             id="path306"
             style="fill:#f0eee8;fill-opacity:1;fill-rule:nonzero;stroke:none"
             d="m 4200.99,8530.69 121.17,209.88 -121.17,209.87 h -242.34 l -121.17,-209.87 121.17,-209.88 h 242.34" /><path
             id="path308"
             style="fill:#f0f2ef;fill-opacity:1;fill-rule:nonzero;stroke:none"
             d="m 4200.99,7691.2 121.17,209.87 -121.17,209.88 h -242.34 l -121.17,-209.88 121.17,-209.87 h 242.34" /><path
             id="path310"
             style="fill:#f6f5f2;fill-opacity:1;fill-rule:nonzero;stroke:none"
             d="m 4564.49,8320.82 121.18,-209.88 -121.18,-209.87 h -242.33 l -121.17,209.87 121.17,209.88 h 242.33" /><path
             id="path312"
             style="fill:#fcfcfc;fill-opacity:1;fill-rule:nonzero;stroke:none"
             d="m 4564.49,8740.57 121.18,209.87 -121.18,209.88 h -242.33 l -121.17,-209.88 121.17,-209.87 h 242.33" /><path
             id="path314"
             style="fill:#f0f2ef;fill-opacity:1;fill-rule:nonzero;stroke:none"
             d="m 4200.99,10209.7 121.17,209.9 -121.17,209.8 h -242.34 l -121.17,-209.8 121.17,-209.9 h 242.34" /><path
             id="path316"
             style="fill:#ece9e2;fill-opacity:1;fill-rule:nonzero;stroke:none"
             d="m 4564.49,10419.6 121.18,-209.9 -121.18,-209.89 h -242.33 l -121.17,209.89 121.17,209.9 h 242.33" /><path
             id="path318"
             style="fill:#f8f8f6;fill-opacity:1;fill-rule:nonzero;stroke:none"
             d="m 4564.49,9999.8 121.18,-209.87 -121.18,-209.87 h -242.33 l -121.17,209.87 121.17,209.87 h 242.33" /><path
             id="path320"
             style="fill:#f6f5f2;fill-opacity:1;fill-rule:nonzero;stroke:none"
             d="m 2748.94,8530.69 121.17,-209.87 -121.17,-209.87 H 2506.6 l -121.17,209.87 121.17,209.87 h 242.34" /><path
             id="path322"
             style="fill:#f8f8f6;fill-opacity:1;fill-rule:nonzero;stroke:none"
             d="m 2748.94,7691.2 121.17,209.87 -121.17,209.88 H 2506.6 L 2385.43,7901.07 2506.6,7691.2 h 242.34" /><path
             id="path324"
             style="fill:#e7e4d9;fill-opacity:1;fill-rule:nonzero;stroke:none"
             d="m 2748.94,9370.19 121.17,-209.87 -121.17,-209.88 H 2506.6 l -121.17,209.88 121.17,209.87 h 242.34" /><path
             id="path326"
             style="fill:#ebede9;fill-opacity:1;fill-rule:nonzero;stroke:none"
             d="m 2143.89,8740.57 -121.18,209.87 121.18,209.88 h 242.34 l 121.17,-209.88 -121.17,-209.87 h -242.34" /><path
             id="path328"
             style="fill:#f8f8f6;fill-opacity:1;fill-rule:nonzero;stroke:none"
             d="m 2748.94,6851.71 121.17,209.87 -121.17,209.87 H 2506.6 l -121.17,-209.87 121.17,-209.87 h 242.34" /><path
             id="path330"
             style="fill:#f0eee8;fill-opacity:1;fill-rule:nonzero;stroke:none"
             d="m 2143.89,7061.58 -121.18,209.87 121.18,209.88 h 242.34 l 121.17,-209.88 -121.17,-209.87 h -242.34" /><path
             id="path332"
             style="fill:#f6f5f2;fill-opacity:1;fill-rule:nonzero;stroke:none"
             d="m 2143.89,6641.83 -121.18,-209.88 121.18,-209.87 h 242.34 l 121.17,209.87 -121.17,209.88 h -242.34" /><path
             id="path334"
             style="fill:#ece9e2;fill-opacity:1;fill-rule:nonzero;stroke:none"
             d="m 2748.94,10209.7 121.17,-209.89 -121.17,-209.87 H 2506.6 l -121.17,209.87 121.17,209.89 h 242.34" /><path
             id="path336"
             style="fill:#f0f0f0;fill-opacity:1;fill-rule:nonzero;stroke:none"
             d="m 1781.57,7691.2 -121.17,209.87 121.17,209.88 h 242.34 l 121.17,-209.88 -121.17,-209.87 h -242.34" /><path
             id="path338"
             style="fill:#e7e4d9;fill-opacity:1;fill-rule:nonzero;stroke:none"
             d="m 1781.57,6851.71 -121.17,209.87 121.17,209.87 h 242.34 l 121.17,-209.87 -121.17,-209.87 h -242.34" /><path
             id="path340"
             style="fill:#f8f8f6;fill-opacity:1;fill-rule:nonzero;stroke:none"
             d="m 1781.57,7691.2 -121.17,-209.87 121.17,-209.88 h 242.34 l 121.17,209.88 -121.17,209.87 h -242.34" /><path
             id="path342"
             style="fill:#e8eae6;fill-opacity:1;fill-rule:nonzero;stroke:none"
             d="m 1418.06,7061.58 -121.17,209.87 121.17,209.88 h 242.34 l 121.17,-209.88 -121.17,-209.87 h -242.34" /><path
             id="path344"
             style="fill:#f6f5f2;fill-opacity:1;fill-rule:nonzero;stroke:none"
             d="m 1418.06,6641.83 -121.17,-209.88 121.17,-209.87 h 242.34 l 121.17,209.87 -121.17,209.88 h -242.34" /><path
             id="path346"
             style="fill:#e6e6e6;fill-opacity:1;fill-rule:nonzero;stroke:none"
             d="m 1781.57,10209.7 -121.17,209.9 121.17,209.8 h 242.34 l 121.17,-209.8 -121.17,-209.9 h -242.34" /><path
             id="path348"
             style="fill:#ebede9;fill-opacity:1;fill-rule:nonzero;stroke:none"
             d="m 1781.57,10209.7 -121.17,-209.89 121.17,-209.87 h 242.34 l 121.17,209.87 -121.17,209.89 h -242.34" /><path
             id="path350"
             style="fill:#e7e4d9;fill-opacity:1;fill-rule:nonzero;stroke:none"
             d="M 208.352,8320.82 329.52,8110.94 208.352,7901.07 H -33.9883 L -155.16,8110.94 -33.9883,8320.82 H 208.352" /><path
             id="path352"
             style="fill:#f0f0f0;fill-opacity:1;fill-rule:nonzero;stroke:none"
             d="M 208.352,8320.82 329.52,8530.69 208.352,8740.57 H -33.9883 L -155.16,8530.69 -33.9883,8320.82 H 208.352" /><path
             id="path354"
             style="fill:#e8e6e6;fill-opacity:1;fill-rule:nonzero;stroke:none"
             d="M 208.352,7061.58 329.52,6851.71 208.352,6641.84 H -33.9883 L -155.16,6851.71 -33.9883,7061.58 H 208.352" /><path
             id="path356"
             style="fill:#e8eae6;fill-opacity:1;fill-rule:nonzero;stroke:none"
             d="M 208.352,6641.83 329.52,6431.95 208.352,6222.08 H -33.9883 L -155.16,6431.95 -33.9883,6641.83 H 208.352" /><path
             id="path358"
             style="fill:#e7e4d9;fill-opacity:1;fill-rule:nonzero;stroke:none"
             d="M 934.574,9580.06 1055.75,9370.19 934.574,9160.32 h -242.34 l -121.172,209.87 121.172,209.87 h 242.34" /><path
             id="path360"
             style="fill:#f1f4f0;fill-opacity:1;fill-rule:nonzero;stroke:none"
             d="m 934.574,7061.58 121.176,209.87 -121.176,209.88 H 692.234 L 571.062,7271.45 692.234,7061.58 h 242.34" /><path
             id="path362"
             style="fill:#e8eae6;fill-opacity:1;fill-rule:nonzero;stroke:none"
             d="M 934.574,7901.08 1055.75,7691.21 934.574,7481.33 h -242.34 l -121.172,209.88 121.172,209.87 h 242.34" /><path
             id="path364"
             style="fill:#e6e6e6;fill-opacity:1;fill-rule:nonzero;stroke:none"
             d="M 329.52,9370.19 208.352,9580.06 329.52,9789.94 H 571.863 L 693.031,9580.06 571.863,9370.19 H 329.52" /><path
             id="path366"
             style="fill:#ebede9;fill-opacity:1;fill-rule:nonzero;stroke:none"
             d="m 1296.89,8530.69 121.17,209.88 -121.17,209.87 H 1054.55 L 933.383,8740.57 1054.55,8530.69 h 242.34" /><path
             id="path368"
             style="fill:#ece9e2;fill-opacity:1;fill-rule:nonzero;stroke:none"
             d="m 1296.89,6851.71 121.17,-209.87 -121.17,-209.88 h -242.34 l -121.167,209.88 121.167,209.87 h 242.34" /><path
             id="path370"
             style="fill:#f7f6f3;fill-opacity:1;fill-rule:nonzero;stroke:none"
             d="m 1296.89,10209.7 121.17,209.9 -121.17,209.8 h -242.34 l -121.167,-209.8 121.167,-209.9 h 242.34" /><path
             id="path372"
             style="fill:#f2f0eb;fill-opacity:1;fill-rule:nonzero;stroke:none"
             d="m 6016.54,8320.82 121.17,-209.88 -121.17,-209.87 h -242.35 l -121.16,209.87 121.16,209.88 h 242.35" /><path
             id="path374"
             style="fill:#fefefe;fill-opacity:1;fill-rule:nonzero;stroke:none"
             d="m 6016.54,8320.82 121.17,209.87 -121.17,209.88 h -242.35 l -121.16,-209.88 121.16,-209.87 h 242.35" /><path
             id="path376"
             style="fill:#f8f8f6;fill-opacity:1;fill-rule:nonzero;stroke:none"
             d="m 5653.03,9370.19 121.16,-209.87 -121.16,-209.88 h -242.34 l -121.16,209.88 121.16,209.87 h 242.34" /><path
             id="path378"
             style="fill:#f1f0e7;fill-opacity:1;fill-rule:nonzero;stroke:none"
             d="m 5047.98,8740.57 -121.17,209.87 121.17,209.88 h 242.34 l 121.18,-209.88 -121.18,-209.87 h -242.34" /><path
             id="path380"
             style="fill:#fefefe;fill-opacity:1;fill-rule:nonzero;stroke:none"
             d="m 6016.54,9580.06 121.17,-209.87 -121.17,-209.87 h -242.35 l -121.16,209.87 121.16,209.87 h 242.35" /><path
             id="path382"
             style="fill:#f0f2ef;fill-opacity:1;fill-rule:nonzero;stroke:none"
             d="m 5047.98,9580.06 -121.17,-209.87 121.17,-209.87 h 242.34 l 121.18,209.87 -121.18,209.87 h -242.34" /><path
             id="path384"
             style="fill:#ebede9;fill-opacity:1;fill-rule:nonzero;stroke:none"
             d="m 5653.03,10209.7 121.16,-209.89 -121.16,-209.87 h -242.34 l -121.16,209.87 121.16,209.89 h 242.34" /><path
             id="path386"
             style="fill:#f0eee8;fill-opacity:1;fill-rule:nonzero;stroke:none"
             d="m 5653.03,9370.19 121.16,209.87 -121.16,209.88 h -242.34 l -121.16,-209.88 121.16,-209.87 h 242.34" /><path
             id="path388"
             style="fill:#f6f5f2;fill-opacity:1;fill-rule:nonzero;stroke:none"
             d="m 4685.66,8530.69 -121.17,-209.87 121.17,-209.87 H 4928 l 121.17,209.87 -121.17,209.87 h -242.34" /><path
             id="path390"
             style="fill:#f7f6f3;fill-opacity:1;fill-rule:nonzero;stroke:none"
             d="m 4685.66,8530.69 -121.17,209.88 121.17,209.87 H 4928 L 5049.17,8740.57 4928,8530.69 h -242.34" /><path
             id="path392"
             style="fill:#f0eee8;fill-opacity:1;fill-rule:nonzero;stroke:none"
             d="m 4685.66,10209.7 -121.17,209.9 121.17,209.8 H 4928 l 121.17,-209.8 -121.17,-209.9 h -242.34" /><path
             id="path394"
             style="fill:#e8eae6;fill-opacity:1;fill-rule:nonzero;stroke:none"
             d="m 4685.66,10209.7 -121.17,-209.89 121.17,-209.87 H 4928 l 121.17,209.87 -121.17,209.89 h -242.34" /><path
             id="path396"
             style="fill:#e8e6e6;fill-opacity:1;fill-rule:nonzero;stroke:none"
             d="m 4685.66,9370.19 -121.17,209.87 121.17,209.88 H 4928 L 5049.17,9580.06 4928,9370.19 h -242.34" /><path
             id="path398"
             style="fill:#f3f1ec;fill-opacity:1;fill-rule:nonzero;stroke:none"
             d="m 6137.71,8530.69 -121.17,-209.87 121.17,-209.87 h 242.34 l 121.18,209.87 -121.18,209.87 h -242.34" /><path
             id="path400"
             style="fill:#f5f5f5;fill-opacity:1;fill-rule:nonzero;stroke:none"
             d="m 6137.71,8530.69 -121.17,209.88 121.17,209.87 h 242.34 l 121.18,-209.87 -121.18,-209.88 h -242.34" /><path
             id="path402"
             style="fill:#f3f1ec;fill-opacity:1;fill-rule:nonzero;stroke:none"
             d="m 6137.71,7691.2 -121.17,209.87 121.17,209.88 h 242.34 l 121.18,-209.88 -121.18,-209.87 h -242.34" /><path
             id="path404"
             style="fill:#f0eee8;fill-opacity:1;fill-rule:nonzero;stroke:none"
             d="m 6742.77,8320.82 121.17,209.87 -121.17,209.88 h -242.35 l -121.17,-209.88 121.17,-209.87 h 242.35" /><path
             id="path406"
             style="fill:#fefefe;fill-opacity:1;fill-rule:nonzero;stroke:none"
             d="m 6742.77,7901.08 121.17,-209.87 -121.17,-209.88 h -242.35 l -121.17,209.88 121.17,209.87 h 242.35" /><path
             id="path408"
             style="fill:#f7f6f3;fill-opacity:1;fill-rule:nonzero;stroke:none"
             d="m 6137.71,10209.7 -121.17,209.9 121.17,209.8 h 242.34 l 121.18,-209.8 -121.18,-209.9 h -242.34" /><path
             id="path410"
             style="fill:#e8e6e6;fill-opacity:1;fill-rule:nonzero;stroke:none"
             d="m 6742.77,10419.6 121.17,-209.9 -121.17,-209.89 h -242.35 l -121.17,209.89 121.17,209.9 h 242.35" /><path
             id="path412"
             style="fill:#f0f0f0;fill-opacity:1;fill-rule:nonzero;stroke:none"
             d="m 6137.71,9370.19 -121.17,209.87 121.17,209.88 h 242.34 l 121.18,-209.88 -121.18,-209.87 h -242.34" /><path
             id="path414"
             style="fill:#f8f8f6;fill-opacity:1;fill-rule:nonzero;stroke:none"
             d="m 7105.07,8530.69 121.18,-209.87 -121.18,-209.87 h -242.32 l -121.17,209.87 121.17,209.87 h 242.32" /><path
             id="path416"
             style="fill:#f8f8f6;fill-opacity:1;fill-rule:nonzero;stroke:none"
             d="m 7105.07,7691.2 121.18,209.87 -121.18,209.88 h -242.32 l -121.17,-209.88 121.17,-209.87 h 242.32" /><path
             id="path418"
             style="fill:#f0f0f0;fill-opacity:1;fill-rule:nonzero;stroke:none"
             d="m 7468.59,8320.82 121.17,-209.88 -121.17,-209.87 h -242.34 l -121.18,209.87 121.18,209.88 h 242.34" /><path
             id="path420"
             style="fill:#ebede9;fill-opacity:1;fill-rule:nonzero;stroke:none"
             d="m 7105.07,9370.19 121.18,-209.87 -121.18,-209.88 h -242.32 l -121.17,209.88 121.17,209.87 h 242.32" /><path
             id="path422"
             style="fill:#f0f2ef;fill-opacity:1;fill-rule:nonzero;stroke:none"
             d="m 7468.59,8740.57 121.17,209.87 -121.17,209.88 h -242.34 l -121.18,-209.88 121.18,-209.87 h 242.34" /><path
             id="path424"
             style="fill:#f8f8f6;fill-opacity:1;fill-rule:nonzero;stroke:none"
             d="m 7468.59,7061.58 121.17,209.87 -121.17,209.88 h -242.34 l -121.18,-209.88 121.18,-209.87 h 242.34" /><path
             id="path426"
             style="fill:#ebede9;fill-opacity:1;fill-rule:nonzero;stroke:none"
             d="m 7468.59,7901.08 121.17,-209.87 -121.17,-209.88 h -242.34 l -121.18,209.88 121.18,209.87 h 242.34" /><path
             id="path428"
             style="fill:#ebede9;fill-opacity:1;fill-rule:nonzero;stroke:none"
             d="m 7105.07,10209.7 121.18,209.9 -121.18,209.8 h -242.32 l -121.17,-209.8 121.17,-209.9 h 242.32" /><path
             id="path430"
             style="fill:#ece9e2;fill-opacity:1;fill-rule:nonzero;stroke:none"
             d="m 7105.07,10209.7 121.18,-209.89 -121.18,-209.87 h -242.32 l -121.17,209.87 121.17,209.89 h 242.32" /><path
             id="path432"
             style="fill:#e8e6e6;fill-opacity:1;fill-rule:nonzero;stroke:none"
             d="m 7468.59,10419.6 121.17,-209.9 -121.17,-209.89 h -242.34 l -121.18,209.89 121.18,209.9 h 242.34" /><path
             id="path434"
             style="fill:#f7f6f3;fill-opacity:1;fill-rule:nonzero;stroke:none"
             d="m 7468.59,9999.8 121.17,-209.87 -121.17,-209.87 h -242.34 l -121.18,209.87 121.18,209.87 h 242.34" /><path
             id="path436"
             style="fill:#ebede9;fill-opacity:1;fill-rule:nonzero;stroke:none"
             d="m 8678.3,8320.82 -121.18,-209.88 121.18,-209.87 h 242.34 l 121.17,209.87 -121.17,209.88 H 8678.3" /><path
             id="path438"
             style="fill:#f1f0e7;fill-opacity:1;fill-rule:nonzero;stroke:none"
             d="m 8678.3,9580.06 -121.18,-209.87 121.18,-209.87 h 242.34 l 121.17,209.87 -121.17,209.87 H 8678.3" /><path
             id="path440"
             style="fill:#f8f8f6;fill-opacity:1;fill-rule:nonzero;stroke:none"
             d="m 8678.3,7901.08 -121.18,-209.87 121.18,-209.88 h 242.34 l 121.17,209.88 -121.17,209.87 H 8678.3" /><path
             id="path442"
             style="fill:#f8f8f6;fill-opacity:1;fill-rule:nonzero;stroke:none"
             d="m 9646.85,7061.58 121.19,-209.87 -121.19,-209.87 h -242.32 l -121.18,209.87 121.18,209.87 h 242.32" /><path
             id="path444"
             style="fill:#f5f5f5;fill-opacity:1;fill-rule:nonzero;stroke:none"
             d="m 8678.3,6641.83 -121.18,-209.88 121.18,-209.87 h 242.34 l 121.17,209.87 -121.17,209.88 H 8678.3" /><path
             id="path446"
             style="fill:#ebede9;fill-opacity:1;fill-rule:nonzero;stroke:none"
             d="m 9041.81,10209.7 -121.17,-209.89 121.17,-209.87 h 242.35 l 121.17,209.87 -121.17,209.89 h -242.35" /><path
             id="path448"
             style="fill:#f1f0e7;fill-opacity:1;fill-rule:nonzero;stroke:none"
             d="m 10009.2,10209.7 121.1,209.9 -121.1,209.8 h -242.35 l -121.17,-209.8 121.17,-209.9 h 242.35" /><path
             id="path450"
             style="fill:#f7f6f3;fill-opacity:1;fill-rule:nonzero;stroke:none"
             d="m 7952.07,8320.82 -121.18,-209.88 121.18,-209.87 h 242.36 l 121.15,209.87 -121.15,209.88 h -242.36" /><path
             id="path452"
             style="fill:#e8e6e6;fill-opacity:1;fill-rule:nonzero;stroke:none"
             d="m 7952.07,8320.82 -121.18,209.87 121.18,209.88 h 242.36 l 121.15,-209.88 -121.15,-209.87 h -242.36" /><path
             id="path454"
             style="fill:#e7e4d9;fill-opacity:1;fill-rule:nonzero;stroke:none"
             d="m 8557.12,9370.19 121.18,-209.87 -121.18,-209.88 h -242.34 l -121.17,209.88 121.17,209.87 h 242.34" /><path
             id="path456"
             style="fill:#ebede9;fill-opacity:1;fill-rule:nonzero;stroke:none"
             d="m 7952.07,8740.57 -121.18,209.87 121.18,209.88 h 242.36 l 121.15,-209.88 -121.15,-209.87 h -242.36" /><path
             id="path458"
             style="fill:#f8f8f6;fill-opacity:1;fill-rule:nonzero;stroke:none"
             d="m 8557.12,6851.71 121.18,209.87 -121.18,209.87 h -242.34 l -121.17,-209.87 121.17,-209.87 h 242.34" /><path
             id="path460"
             style="fill:#f8f8f6;fill-opacity:1;fill-rule:nonzero;stroke:none"
             d="m 8557.12,6851.71 121.18,-209.87 -121.18,-209.88 h -242.34 l -121.17,209.88 121.17,209.87 h 242.34" /><path
             id="path462"
             style="fill:#f6f5f2;fill-opacity:1;fill-rule:nonzero;stroke:none"
             d="m 7952.07,7061.58 -121.18,209.87 121.18,209.88 h 242.36 l 121.15,-209.88 -121.15,-209.87 h -242.36" /><path
             id="path464"
             style="fill:#ebede9;fill-opacity:1;fill-rule:nonzero;stroke:none"
             d="m 8557.12,10209.7 121.18,209.9 -121.18,209.8 h -242.34 l -121.17,-209.8 121.17,-209.9 h 242.34" /><path
             id="path466"
             style="fill:#f8f8f6;fill-opacity:1;fill-rule:nonzero;stroke:none"
             d="m 7952.07,10419.6 -121.18,-209.9 121.18,-209.89 h 242.36 l 121.15,209.89 -121.15,209.9 h -242.36" /><path
             id="path468"
             style="fill:#e6e6e6;fill-opacity:1;fill-rule:nonzero;stroke:none"
             d="m 7952.07,9999.8 -121.18,-209.87 121.18,-209.87 h 242.36 l 121.15,209.87 -121.15,209.87 h -242.36" /><path
             id="path470"
             style="fill:#ece9e2;fill-opacity:1;fill-rule:nonzero;stroke:none"
             d="m 7589.76,8530.69 -121.17,-209.87 121.17,-209.87 h 242.34 l 121.18,209.87 -121.18,209.87 h -242.34" /><path
             id="path472"
             style="fill:#fefefe;fill-opacity:1;fill-rule:nonzero;stroke:none"
             d="m 7589.76,6851.71 -121.17,209.87 121.17,209.87 h 242.34 l 121.18,-209.87 -121.18,-209.87 h -242.34" /><path
             id="path474"
             style="fill:#f8f8f6;fill-opacity:1;fill-rule:nonzero;stroke:none"
             d="m 7589.76,7691.2 -121.17,-209.87 121.17,-209.88 h 242.34 l 121.18,209.88 -121.18,209.87 h -242.34" /><path
             id="path476"
             style="fill:#e7e4d9;fill-opacity:1;fill-rule:nonzero;stroke:none"
             d="m 7589.76,10209.7 -121.17,209.9 121.17,209.8 h 242.34 l 121.18,-209.8 -121.18,-209.9 h -242.34" /><path
             id="path478"
             style="fill:#e8eae6;fill-opacity:1;fill-rule:nonzero;stroke:none"
             d="m 7589.76,9370.19 -121.17,209.87 121.17,209.88 h 242.34 l 121.18,-209.88 -121.18,-209.87 h -242.34" /><path
             id="path480"
             style="fill:#f0f0f0;fill-opacity:1;fill-rule:nonzero;stroke:none"
             d="m 3233.62,3913.47 -121.17,-209.86 121.17,-209.89 h 242.34 l 121.17,209.89 -121.17,209.86 h -242.34" /><path
             id="path482"
             style="fill:#f8f8f6;fill-opacity:1;fill-rule:nonzero;stroke:none"
             d="m 3233.62,4752.96 -121.17,-209.86 121.17,-209.88 h 242.34 l 121.17,209.88 -121.17,209.86 h -242.34" /><path
             id="path484"
             style="fill:#fefefe;fill-opacity:1;fill-rule:nonzero;stroke:none"
             d="m 2870.11,4123.35 -121.17,-209.88 121.17,-209.86 h 242.34 l 121.17,209.86 -121.17,209.88 h -242.34" /><path
             id="path486"
             style="fill:#f6f5f2;fill-opacity:1;fill-rule:nonzero;stroke:none"
             d="m 3838.67,4123.35 121.17,209.89 -121.17,209.86 h -242.34 l -121.17,-209.86 121.17,-209.89 h 242.34" /><path
             id="path488"
             style="fill:#f8f8f6;fill-opacity:1;fill-rule:nonzero;stroke:none"
             d="m 3838.67,4123.35 121.17,-209.88 -121.17,-209.86 h -242.34 l -121.17,209.86 121.17,209.88 h 242.34" /><path
             id="path490"
             style="fill:#f8f8f6;fill-opacity:1;fill-rule:nonzero;stroke:none"
             d="m 2870.11,3703.61 -121.17,-209.89 121.17,-209.88 h 242.34 l 121.17,209.88 -121.17,209.89 h -242.34" /><path
             id="path492"
             style="fill:#f8f8f6;fill-opacity:1;fill-rule:nonzero;stroke:none"
             d="m 3838.67,2864.12 121.17,209.86 -121.17,209.86 h -242.34 l -121.17,-209.86 121.17,-209.86 h 242.34" /><path
             id="path494"
             style="fill:#f1f0e7;fill-opacity:1;fill-rule:nonzero;stroke:none"
             d="m 3233.62,4752.96 -121.17,209.89 121.17,209.86 h 242.34 l 121.17,-209.86 -121.17,-209.89 h -242.34" /><path
             id="path496"
             style="fill:#fefefe;fill-opacity:1;fill-rule:nonzero;stroke:none"
             d="m 2870.11,4543.1 -121.17,209.86 121.17,209.89 h 242.34 l 121.17,-209.89 -121.17,-209.86 h -242.34" /><path
             id="path498"
             style="fill:#fcfcfc;fill-opacity:1;fill-rule:nonzero;stroke:none"
             d="m 3838.67,4543.1 121.17,209.86 -121.17,209.89 h -242.34 l -121.17,-209.89 121.17,-209.86 h 242.34" /><path
             id="path500"
             style="fill:#f2f2f2;fill-opacity:1;fill-rule:nonzero;stroke:none"
             d="m 4200.99,3913.47 121.17,-209.86 -121.17,-209.89 h -242.34 l -121.17,209.89 121.17,209.86 h 242.34" /><path
             id="path502"
             style="fill:#fefefe;fill-opacity:1;fill-rule:nonzero;stroke:none"
             d="m 4200.99,4752.96 121.17,-209.86 -121.17,-209.88 h -242.34 l -121.17,209.88 121.17,209.86 h 242.34" /><path
             id="path504"
             style="fill:#fcfcfc;fill-opacity:1;fill-rule:nonzero;stroke:none"
             d="m 4564.49,4123.35 121.18,-209.88 -121.18,-209.86 h -242.33 l -121.17,209.86 121.17,209.88 h 242.33" /><path
             id="path506"
             style="fill:#f8f8f6;fill-opacity:1;fill-rule:nonzero;stroke:none"
             d="m 4564.49,3703.61 121.18,-209.89 -121.18,-209.88 h -242.33 l -121.17,209.88 121.17,209.89 h 242.33" /><path
             id="path508"
             style="fill:#f1f0e7;fill-opacity:1;fill-rule:nonzero;stroke:none"
             d="m 4564.49,2864.12 121.18,209.86 -121.18,209.86 h -242.33 l -121.17,-209.86 121.17,-209.86 h 242.33" /><path
             id="path510"
             style="fill:#f8f8f6;fill-opacity:1;fill-rule:nonzero;stroke:none"
             d="m 4200.99,4752.96 121.17,209.89 -121.17,209.86 h -242.34 l -121.17,-209.86 121.17,-209.89 h 242.34" /><path
             id="path512"
             style="fill:#fcfcfc;fill-opacity:1;fill-rule:nonzero;stroke:none"
             d="m 4564.49,5382.59 121.18,209.88 -121.18,209.86 h -242.33 l -121.17,-209.86 121.17,-209.88 h 242.33" /><path
             id="path514"
             style="fill:#fefefe;fill-opacity:1;fill-rule:nonzero;stroke:none"
             d="m 4200.99,3073.98 121.17,-209.86 -121.17,-209.89 h -242.34 l -121.17,209.89 121.17,209.86 h 242.34" /><path
             id="path516"
             style="fill:#f8f8f6;fill-opacity:1;fill-rule:nonzero;stroke:none"
             d="m 2748.94,3913.47 121.17,209.88 -121.17,209.87 H 2506.6 l -121.17,-209.87 121.17,-209.88 h 242.34" /><path
             id="path518"
             style="fill:#fcfcfc;fill-opacity:1;fill-rule:nonzero;stroke:none"
             d="m 5653.03,3913.47 121.16,-209.86 -121.16,-209.89 h -242.34 l -121.16,209.89 121.16,209.86 h 242.34" /><path
             id="path520"
             style="fill:#fcfcfc;fill-opacity:1;fill-rule:nonzero;stroke:none"
             d="m 6016.54,4123.35 121.17,209.89 -121.17,209.86 h -242.35 l -121.16,-209.86 121.16,-209.89 h 242.35" /><path
             id="path522"
             style="fill:#fefefe;fill-opacity:1;fill-rule:nonzero;stroke:none"
             d="m 5047.98,4123.35 -121.17,209.89 121.17,209.86 h 242.34 l 121.18,-209.86 -121.18,-209.89 h -242.34" /><path
             id="path524"
             style="fill:#f8f8f6;fill-opacity:1;fill-rule:nonzero;stroke:none"
             d="m 6016.54,3703.61 121.17,-209.89 -121.17,-209.88 h -242.35 l -121.16,209.88 121.16,209.89 h 242.35" /><path
             id="path526"
             style="fill:#f2f2f2;fill-opacity:1;fill-rule:nonzero;stroke:none"
             d="m 6016.54,2864.12 121.17,209.86 -121.17,209.86 h -242.35 l -121.16,-209.86 121.16,-209.86 h 242.35" /><path
             id="path528"
             style="fill:#fefefe;fill-opacity:1;fill-rule:nonzero;stroke:none"
             d="m 5047.98,2864.12 -121.17,209.86 121.17,209.86 h 242.34 l 121.18,-209.86 -121.18,-209.86 h -242.34" /><path
             id="path530"
             style="fill:#fefefe;fill-opacity:1;fill-rule:nonzero;stroke:none"
             d="m 5653.03,5592.47 121.16,-209.88 -121.16,-209.88 h -242.34 l -121.16,209.88 121.16,209.88 h 242.34" /><path
             id="path532"
             style="fill:#f8f8f6;fill-opacity:1;fill-rule:nonzero;stroke:none"
             d="m 5653.03,4752.96 121.16,209.89 -121.16,209.86 h -242.34 l -121.16,-209.86 121.16,-209.89 h 242.34" /><path
             id="path534"
             style="fill:#f8f8f6;fill-opacity:1;fill-rule:nonzero;stroke:none"
             d="m 6016.54,5382.59 121.17,209.88 -121.17,209.86 h -242.35 l -121.16,-209.86 121.16,-209.88 h 242.35" /><path
             id="path536"
             style="fill:#f6f5f2;fill-opacity:1;fill-rule:nonzero;stroke:none"
             d="m 5047.98,5382.59 -121.17,209.88 121.17,209.86 h 242.34 l 121.18,-209.86 -121.18,-209.88 h -242.34" /><path
             id="path538"
             style="fill:#f2f2f2;fill-opacity:1;fill-rule:nonzero;stroke:none"
             d="m 5653.03,6431.95 121.16,-209.87 -121.16,-209.87 h -242.34 l -121.16,209.87 121.16,209.87 h 242.34" /><path
             id="path540"
             style="fill:#f1f0e7;fill-opacity:1;fill-rule:nonzero;stroke:none"
             d="m 5653.03,2234.49 121.16,209.86 -121.16,209.88 h -242.34 l -121.16,-209.88 121.16,-209.86 h 242.34" /><path
             id="path542"
             style="fill:#f0f0f0;fill-opacity:1;fill-rule:nonzero;stroke:none"
             d="m 5047.98,2024.62 -121.17,209.87 121.17,209.86 h 242.34 l 121.18,-209.86 -121.18,-209.87 h -242.34" /><path
             id="path544"
             style="fill:#f8f8f6;fill-opacity:1;fill-rule:nonzero;stroke:none"
             d="m 5653.03,3073.98 121.16,-209.86 -121.16,-209.89 h -242.34 l -121.16,209.89 121.16,209.86 h 242.34" /><path
             id="path546"
             style="fill:#f2f2f2;fill-opacity:1;fill-rule:nonzero;stroke:none"
             d="m 4685.66,3913.47 -121.17,-209.86 121.17,-209.89 H 4928 l 121.17,209.89 -121.17,209.86 h -242.34" /><path
             id="path548"
             style="fill:#f8f8f6;fill-opacity:1;fill-rule:nonzero;stroke:none"
             d="M 4685.66,4752.96 4564.49,4543.1 4685.66,4333.22 H 4928 L 5049.17,4543.1 4928,4752.96 h -242.34" /><path
             id="path550"
             style="fill:#f8f8f6;fill-opacity:1;fill-rule:nonzero;stroke:none"
             d="m 4685.66,5592.47 -121.17,209.86 121.17,209.88 H 4928 L 5049.17,5802.33 4928,5592.47 h -242.34" /><path
             id="path552"
             style="fill:#f2f2f2;fill-opacity:1;fill-rule:nonzero;stroke:none"
             d="m 4685.66,4752.96 -121.17,209.89 121.17,209.86 H 4928 L 5049.17,4962.85 4928,4752.96 h -242.34" /><path
             id="path554"
             style="fill:#f8f8f6;fill-opacity:1;fill-rule:nonzero;stroke:none"
             d="m 4685.66,3073.98 -121.17,-209.86 121.17,-209.89 H 4928 l 121.17,209.89 -121.17,209.86 h -242.34" /><path
             id="path556"
             style="fill:#f2f2f2;fill-opacity:1;fill-rule:nonzero;stroke:none"
             d="m 6137.71,3913.47 -121.17,-209.86 121.17,-209.89 h 242.34 l 121.18,209.89 -121.18,209.86 h -242.34" /><path
             id="path558"
             style="fill:#f2f2f2;fill-opacity:1;fill-rule:nonzero;stroke:none"
             d="m 6137.71,4752.96 -121.17,-209.86 121.17,-209.88 h 242.34 l 121.18,209.88 -121.18,209.86 h -242.34" /><path
             id="path560"
             style="fill:#fcfcfc;fill-opacity:1;fill-rule:nonzero;stroke:none"
             d="m 6742.77,4123.35 121.17,209.89 -121.17,209.86 h -242.35 l -121.17,-209.86 121.17,-209.89 h 242.35" /><path
             id="path562"
             style="fill:#f8f8f6;fill-opacity:1;fill-rule:nonzero;stroke:none"
             d="m 6742.77,4123.35 121.17,-209.88 -121.17,-209.86 h -242.35 l -121.17,209.86 121.17,209.88 h 242.35" /><path
             id="path564"
             style="fill:#f8f8f6;fill-opacity:1;fill-rule:nonzero;stroke:none"
             d="m 6742.77,2864.12 121.17,209.86 -121.17,209.86 h -242.35 l -121.17,-209.86 121.17,-209.86 h 242.35" /><path
             id="path566"
             style="fill:#f0f0f0;fill-opacity:1;fill-rule:nonzero;stroke:none"
             d="m 6137.71,5592.47 -121.17,209.86 121.17,209.88 h 242.34 l 121.18,-209.88 -121.18,-209.86 h -242.34" /><path
             id="path568"
             style="fill:#f8f8f6;fill-opacity:1;fill-rule:nonzero;stroke:none"
             d="m 6742.77,5382.59 121.17,-209.88 -121.17,-209.86 h -242.35 l -121.17,209.86 121.17,209.88 h 242.35" /><path
             id="path570"
             style="fill:#fcfcfc;fill-opacity:1;fill-rule:nonzero;stroke:none"
             d="m 6742.77,5382.59 121.17,209.88 -121.17,209.86 h -242.35 l -121.17,-209.86 121.17,-209.88 h 242.35" /><path
             id="path572"
             style="fill:#f8f8f6;fill-opacity:1;fill-rule:nonzero;stroke:none"
             d="m 6137.71,6431.95 -121.17,-209.87 121.17,-209.87 h 242.34 l 121.18,209.87 -121.18,209.87 h -242.34" /><path
             id="path574"
             style="fill:#fefefe;fill-opacity:1;fill-rule:nonzero;stroke:none"
             d="m 7105.07,3913.47 121.18,209.88 -121.18,209.87 h -242.32 l -121.17,-209.87 121.17,-209.88 h 242.32" /><path
             id="path576"
             style="fill:#f8f8f6;fill-opacity:1;fill-rule:nonzero;stroke:none"
             d="m 7105.07,3913.47 121.18,-209.86 -121.18,-209.89 h -242.32 l -121.17,209.89 121.17,209.86 h 242.32" /><path
             id="path578"
             style="fill:#f8f8f6;fill-opacity:1;fill-rule:nonzero;stroke:none"
             d="m 7468.59,4123.35 121.17,209.89 -121.17,209.86 h -242.34 l -121.18,-209.86 121.18,-209.89 h 242.34" /><path
             id="path580"
             style="fill:#f0f0f0;fill-opacity:1;fill-rule:nonzero;stroke:none"
             d="m 7468.59,3703.61 121.17,-209.89 -121.17,-209.88 h -242.34 l -121.18,209.88 121.18,209.89 h 242.34" /><path
             id="path582"
             style="fill:#f2f2f2;fill-opacity:1;fill-rule:nonzero;stroke:none"
             d="m 7105.07,5592.47 121.18,-209.88 -121.18,-209.88 h -242.32 l -121.17,209.88 121.17,209.88 h 242.32" /><path
             id="path584"
             style="fill:#f8f8f6;fill-opacity:1;fill-rule:nonzero;stroke:none"
             d="m 7105.07,5592.47 121.18,209.86 -121.18,209.88 h -242.32 l -121.17,-209.88 121.17,-209.86 h 242.32" /><path
             id="path586"
             style="fill:#f6f5f2;fill-opacity:1;fill-rule:nonzero;stroke:none"
             d="m 7105.07,4752.96 121.18,209.89 -121.18,209.86 h -242.32 l -121.17,-209.86 121.17,-209.89 h 242.32" /><path
             id="path588"
             style="fill:#f8f8f6;fill-opacity:1;fill-rule:nonzero;stroke:none"
             d="m 7468.59,5382.59 121.17,-209.88 -121.17,-209.86 h -242.34 l -121.18,209.86 121.18,209.88 h 242.34" /><path
             id="path590"
             style="fill:#fefefe;fill-opacity:1;fill-rule:nonzero;stroke:none"
             d="m 7468.59,4543.1 121.17,209.86 -121.17,209.89 h -242.34 l -121.18,-209.89 121.18,-209.86 h 242.34" /><path
             id="path592"
             style="fill:#f6f5f2;fill-opacity:1;fill-rule:nonzero;stroke:none"
             d="m 7105.07,6431.95 121.18,-209.87 -121.18,-209.87 h -242.32 l -121.17,209.87 121.17,209.87 h 242.32" /><path
             id="path594"
             style="fill:#f8f8f6;fill-opacity:1;fill-rule:nonzero;stroke:none"
             d="m 7589.76,3913.47 -121.17,209.88 121.17,209.87 h 242.34 l 121.18,-209.87 -121.18,-209.88 h -242.34" /><path
             id="path596"
             style="fill:#f8f8f6;fill-opacity:1;fill-rule:nonzero;stroke:none"
             d="m 7589.76,3913.47 -121.17,-209.86 121.17,-209.89 h 242.34 l 121.18,209.89 -121.18,209.86 h -242.34" /><path
             id="path598"
             style="fill:#f0f0f0;fill-opacity:1;fill-rule:nonzero;stroke:none"
             d="m 7589.76,4752.96 -121.17,-209.86 121.17,-209.88 h 242.34 l 121.18,209.88 -121.18,209.86 h -242.34" /><path
             id="path600"
             style="fill:#f8f8f6;fill-opacity:1;fill-rule:nonzero;stroke:none"
             d="m 7589.76,5592.47 -121.17,-209.88 121.17,-209.88 h 242.34 l 121.18,209.88 -121.18,209.88 h -242.34" /><path
             id="path602"
             style="fill:#f6f5f2;fill-opacity:1;fill-rule:nonzero;stroke:none"
             d="m 7589.76,5592.47 -121.17,209.86 121.17,209.88 h 242.34 l 121.18,-209.88 -121.18,-209.86 h -242.34" /><path
             id="path604"
             style="fill:#f8f8f6;fill-opacity:1;fill-rule:nonzero;stroke:none"
             d="m 7589.76,6431.95 -121.17,-209.87 121.17,-209.87 h 242.34 l 121.18,209.87 -121.18,209.87 h -242.34" /><path
             id="path606"
             style="fill:#fefefe;fill-opacity:1;fill-rule:nonzero;stroke:none"
             d="m 6137.71,6851.71 -121.17,-209.87 121.17,-209.88 h 242.34 l 121.18,209.88 -121.18,209.87 h -242.34" /><path
             id="path608"
             style="fill:#fefefe;fill-opacity:1;fill-rule:nonzero;stroke:none"
             d="m 3233.62,5592.47 -121.17,209.86 121.17,209.88 h 242.34 l 121.17,-209.88 -121.17,-209.86 h -242.34" /><path
             id="path610"
             style="fill:#f8f8f6;fill-opacity:1;fill-rule:nonzero;stroke:none"
             d="m 2870.11,5382.59 -121.17,-209.88 121.17,-209.86 h 242.34 l 121.17,209.86 -121.17,209.88 h -242.34" /><path
             id="path612"
             style="fill:#f8f8f6;fill-opacity:1;fill-rule:nonzero;stroke:none"
             d="m 2870.11,5382.59 -121.17,209.88 121.17,209.86 h 242.34 l 121.17,-209.86 -121.17,-209.88 h -242.34" /><path
             id="path614"
             style="fill:#f2f2f2;fill-opacity:1;fill-rule:nonzero;stroke:none"
             d="m 3233.62,6431.95 -121.17,-209.87 121.17,-209.87 h 242.34 l 121.17,209.87 -121.17,209.87 h -242.34" /><path
             id="path616"
             style="fill:#f8f8f6;fill-opacity:1;fill-rule:nonzero;stroke:none"
             d="m 3838.67,5802.34 121.17,209.88 -121.17,209.86 h -242.34 l -121.17,-209.86 121.17,-209.88 h 242.34" /><path
             id="path618"
             style="fill:#fefefe;fill-opacity:1;fill-rule:nonzero;stroke:none"
             d="m 4200.99,5592.47 121.17,209.86 -121.17,209.88 h -242.34 l -121.17,-209.88 121.17,-209.86 h 242.34" /><path
             id="path620"
             style="fill:#f1f0e7;fill-opacity:1;fill-rule:nonzero;stroke:none"
             d="m 2748.94,5592.47 121.17,209.86 -121.17,209.88 H 2506.6 l -121.17,-209.88 121.17,-209.86 h 242.34" /><path
             id="path622"
             style="fill:#f6f5f2;fill-opacity:1;fill-rule:nonzero;stroke:none"
             d="m 4685.66,6431.95 -121.17,-209.87 121.17,-209.87 H 4928 l 121.17,209.87 -121.17,209.87 h -242.34" /><path
             id="path624"
             style="fill:#f8f8f6;fill-opacity:1;fill-rule:nonzero;stroke:none"
             d="m 3233.62,6851.71 -121.17,209.87 121.17,209.87 h 242.34 l 121.17,-209.87 -121.17,-209.87 h -242.34" /><path
             id="path626"
             style="fill:#f0f0f0;fill-opacity:1;fill-rule:nonzero;stroke:none"
             d="m 3838.67,7061.58 121.17,209.87 -121.17,209.88 h -242.34 l -121.17,-209.88 121.17,-209.87 h 242.34" /><path
             id="path628"
             style="fill:#f8f8f6;fill-opacity:1;fill-rule:nonzero;stroke:none"
             d="m 4200.99,6851.71 121.17,209.87 -121.17,209.87 h -242.34 l -121.17,-209.87 121.17,-209.87 h 242.34" /><path
             id="path630"
             style="fill:#f2f2f2;fill-opacity:1;fill-rule:nonzero;stroke:none"
             d="m 4200.99,6851.71 121.17,-209.87 -121.17,-209.88 h -242.34 l -121.17,209.88 121.17,209.87 h 242.34" /><path
             id="path632"
             style="fill:#fefefe;fill-opacity:1;fill-rule:nonzero;stroke:none"
             d="m 4564.49,7061.58 121.18,209.87 -121.18,209.88 h -242.33 l -121.17,-209.88 121.17,-209.87 h 242.33" /><path
             id="path634"
             style="fill:#f8f8f6;fill-opacity:1;fill-rule:nonzero;stroke:none"
             d="m 4564.49,7901.08 121.18,-209.87 -121.18,-209.88 h -242.33 l -121.17,209.88 121.17,209.87 h 242.33" /><path
             id="path636"
             style="fill:#f8f8f6;fill-opacity:1;fill-rule:nonzero;stroke:none"
             d="m 4564.49,6641.83 121.18,-209.88 -121.18,-209.87 h -242.33 l -121.17,209.87 121.17,209.88 h 242.33" /><path
             id="path638"
             style="fill:#fefefe;fill-opacity:1;fill-rule:nonzero;stroke:none"
             d="m 2748.94,6851.71 121.17,-209.87 -121.17,-209.88 H 2506.6 l -121.17,209.88 121.17,209.87 h 242.34" /><path
             id="path640"
             style="fill:#fefefe;fill-opacity:1;fill-rule:nonzero;stroke:none"
             d="m 5653.03,7691.2 121.16,209.87 -121.16,209.88 h -242.34 l -121.16,-209.88 121.16,-209.87 h 242.34" /><path
             id="path642"
             style="fill:#f1f0e7;fill-opacity:1;fill-rule:nonzero;stroke:none"
             d="m 5047.98,8320.82 -121.17,-209.88 121.17,-209.87 h 242.34 l 121.18,209.87 -121.18,209.88 h -242.34" /><path
             id="path644"
             style="fill:#f2f2f2;fill-opacity:1;fill-rule:nonzero;stroke:none"
             d="m 5653.03,6851.71 121.16,209.87 -121.16,209.87 h -242.34 l -121.16,-209.87 121.16,-209.87 h 242.34" /><path
             id="path646"
             style="fill:#f8f8f6;fill-opacity:1;fill-rule:nonzero;stroke:none"
             d="m 5653.03,7691.2 121.16,-209.87 -121.16,-209.88 h -242.34 l -121.16,209.88 121.16,209.87 h 242.34" /><path
             id="path648"
             style="fill:#f1f0e7;fill-opacity:1;fill-rule:nonzero;stroke:none"
             d="m 6016.54,7061.58 121.17,209.87 -121.17,209.88 h -242.35 l -121.16,-209.88 121.16,-209.87 h 242.35" /><path
             id="path650"
             style="fill:#f8f8f6;fill-opacity:1;fill-rule:nonzero;stroke:none"
             d="m 6016.54,7061.58 121.17,-209.87 -121.17,-209.87 h -242.35 l -121.16,209.87 121.16,209.87 h 242.35" /><path
             id="path652"
             style="fill:#fefefe;fill-opacity:1;fill-rule:nonzero;stroke:none"
             d="m 5047.98,7061.58 -121.17,209.87 121.17,209.88 h 242.34 l 121.18,-209.88 -121.18,-209.87 h -242.34" /><path
             id="path654"
             style="fill:#f8f8f6;fill-opacity:1;fill-rule:nonzero;stroke:none"
             d="m 6016.54,7901.08 121.17,-209.87 -121.17,-209.88 h -242.35 l -121.16,209.88 121.16,209.87 h 242.35" /><path
             id="path656"
             style="fill:#f8f8f6;fill-opacity:1;fill-rule:nonzero;stroke:none"
             d="m 5047.98,7901.08 -121.17,-209.87 121.17,-209.88 h 242.34 l 121.18,209.88 -121.18,209.87 h -242.34" /><path
             id="path658"
             style="fill:#f8f8f6;fill-opacity:1;fill-rule:nonzero;stroke:none"
             d="m 5047.98,7061.58 -121.17,-209.87 121.17,-209.87 h 242.34 l 121.18,209.87 -121.18,209.87 h -242.34" /><path
             id="path660"
             style="fill:#fefefe;fill-opacity:1;fill-rule:nonzero;stroke:none"
             d="m 4685.66,7691.2 -121.17,209.87 121.17,209.88 H 4928 L 5049.17,7901.07 4928,7691.2 h -242.34" /><path
             id="path662"
             style="fill:#f8f8f6;fill-opacity:1;fill-rule:nonzero;stroke:none"
             d="m 4685.66,6851.71 -121.17,-209.87 121.17,-209.88 H 4928 l 121.17,209.88 -121.17,209.87 h -242.34" /><path
             id="path664"
             style="fill:#f0f0f0;fill-opacity:1;fill-rule:nonzero;stroke:none"
             d="m 4685.66,7691.2 -121.17,-209.87 121.17,-209.88 H 4928 L 5049.17,7481.33 4928,7691.2 h -242.34" /><path
             id="path666"
             style="fill:#f0f0f0;fill-opacity:1;fill-rule:nonzero;stroke:none"
             d="m 6137.71,7691.2 -121.17,-209.87 121.17,-209.88 h 242.34 l 121.18,209.88 -121.18,209.87 h -242.34" /><path
             id="path668"
             style="fill:#f8f8f6;fill-opacity:1;fill-rule:nonzero;stroke:none"
             d="m 6742.77,7061.58 121.17,209.87 -121.17,209.88 h -242.35 l -121.17,-209.88 121.17,-209.87 h 242.35" /><path
             id="path670"
             style="fill:#f8f8f6;fill-opacity:1;fill-rule:nonzero;stroke:none"
             d="m 6742.77,7061.58 121.17,-209.87 -121.17,-209.87 h -242.35 l -121.17,209.87 121.17,209.87 h 242.35" /><path
             id="path672"
             style="fill:#fefefe;fill-opacity:1;fill-rule:nonzero;stroke:none"
             d="m 7105.07,6851.71 121.18,209.87 -121.18,209.87 h -242.32 l -121.17,-209.87 121.17,-209.87 h 242.32" /><path
             id="path674"
             style="fill:#f2f2f2;fill-opacity:1;fill-rule:nonzero;stroke:none"
             d="m 7468.59,7061.58 121.17,-209.87 -121.17,-209.87 h -242.34 l -121.18,209.87 121.18,209.87 h 242.34" /><path
             id="path676"
             style="fill:#f8f8f6;fill-opacity:1;fill-rule:nonzero;stroke:none"
             d="m 7468.59,6641.83 121.17,-209.88 -121.17,-209.87 h -242.34 l -121.18,209.87 121.18,209.88 h 242.34" /><path
             id="path678"
             style="fill:#f8f8f6;fill-opacity:1;fill-rule:nonzero;stroke:none"
             d="m 2748.94,5592.47 121.17,-209.88 -121.17,-209.88 H 2506.6 l -121.17,209.88 121.17,209.88 h 242.34" /><path
             id="path680"
             style="fill:#f0f0f0;fill-opacity:1;fill-rule:nonzero;stroke:none"
             d="m 2748.94,6431.95 121.17,-209.87 -121.17,-209.87 H 2506.6 l -121.17,209.87 121.17,209.87 h 242.34" /><path
             id="path682"
             style="fill:#f8f8f6;fill-opacity:1;fill-rule:nonzero;stroke:none"
             d="m 2870.11,6641.83 -121.17,-209.88 121.17,-209.87 h 242.34 l 121.17,209.87 -121.17,209.88 h -242.34" /></g></g></g></g></svg>
