<?xml version="1.0" encoding="utf-8"?>
<!-- Generator: Adobe Illustrator 19.1.0, SVG Export Plug-In . SVG Version: 6.00 Build 0)  -->
<svg version="1.1" id="Layer_1" xmlns="http://www.w3.org/2000/svg" xmlns:xlink="http://www.w3.org/1999/xlink" x="0px" y="0px"
	 viewBox="0 0 612 792" style="fill:rgba(101, 82, 52, 0.5); enable-background:new 0 0 612 792;" xml:space="preserve">
<style type="text/css">
	.st0{fill-rule:evenodd;clip-rule:evenodd;}
</style>
<g>
	<path d="M721,390c-64.9-11.3-86.7-95.4-117.9-153.7c-33.6-62.9-74.7-118.2-143.1-87.4c48.2,32.4,55.2,138.8-9.9,146.2
		c-63.4,7.2-78.5-107.9-3.8-147.4c-50.2-29.1-79.3,6.3-118.9,39.5C295.6,214,263,237,227.1,219.3c-35.4-17.5-62.8-32.1-85-35.8
		c-17.7-2.9-32.1-0.1-44.7,10.7c3.4,1,6.5,2.4,9,4.1c26.1,17.2-2.1,52-20.2,29.8c-6-7.4-6.7-18.1,0.4-27c1.4-1.8,2.9-3.5,4.4-5
		c-9.3-1.2-17.5,1.2-26.5,2c-15.6,1.4-44-2.2-50.7-21.1c10.8,17.6,33.6,19.4,50.5,17.9c10.1-0.9,19.2-3.6,29.5-1.6
		c13.6-12.8,29.2-16.3,48.6-13.1c22.6,3.7,50.2,16.5,85.7,34.1c34.5,17.1,64.2-7.8,95.4-34.1c37.4-31.5,68.1-73.7,129.9-36.7
		c77.4-44.5,131.3,5.9,177.2,80.6c22.5,36.6,52.5,82.3,90.4,86.1C721,311.5,721,388.8,721,390L721,390z M452.9,152.4
		c-69.5,33.5-55.8,133.4-2.4,126.2c24.8-3.3,36.3-25.6,34.1-55C482.5,195.4,471,172.3,452.9,152.4L452.9,152.4z M94.6,196.8
		c-14,13-10.4,36.6,9,34.6c10.9-1.1,17.1-20,1.5-30.3C102.2,199.3,98.7,197.8,94.6,196.8L94.6,196.8z"/>
	<path d="M-45,311c31.3,37.2,48.6,94.7,70.9,139.4c35.2,70.4,78.7,133.1,153.8,104.9c-51.7-38.5-56.9-153.9,14.1-157.1
		c69.2-3.1,83,122.3,0.8,159.4c54,35.2,86.5-0.9,130.4-33.9c35.3-26.5,71.4-49,110.1-27.2c38.1,21.5,67.7,39.3,91.8,44.9
		c19.2,4.5,35,2.5,48.9-8.3c-3.7-1.3-7-3.1-9.8-5.1c-28.1-20.5,3.5-56,22.7-30.7c6.4,8.5,6.9,20-1.1,29.1c-1.6,1.8-3.2,3.5-4.9,5.1
		c10.1,2,19,0,28.9-0.2c17-0.4,47.8,5.7,54.7,26.5c-11.4-19.8-36.1-23.5-54.6-23c-11,0.3-20.9,2.5-32.2-0.5
		c-15.1,12.8-32.2,15.4-53.3,10.5c-24.5-5.7-54.3-21.6-92.6-43.2c-37.2-21-70.1,3.7-104.7,29.7c-41.5,31.2-75.9,74.5-142.4,30
		C101.5,603.8,44,545.4-4.3,461.4c-11.6-20.2-25.1-42.8-40.7-61.5V311L-45,311z M187.7,552c76.5-31.1,63.9-139.9,5.5-136
		c-27.1,1.8-40.1,25-38.4,56.9C156.4,503.4,168.4,529.2,187.7,552L187.7,552z M578.9,530.6c15.5-13.1,12.2-38.8-9.1-38.1
		c-11.9,0.4-19,20.3-2.3,32.6C570.7,527.4,574.5,529.3,578.9,530.6L578.9,530.6z"/>
	<path d="M-45,536.5c26.3,45.7,59.5,79.6,111.3,60.2c-41.8-31.2-46-124.6,11.4-127.2c56-2.5,67.2,98.9,0.6,129
		c43.7,28.5,70-0.7,105.5-27.4c28.6-21.5,57.8-39.7,89.1-22c30.8,17.4,54.8,31.8,74.3,36.3c15.5,3.6,28.3,2,39.6-6.7
		c-3-1.1-5.7-2.5-7.9-4.1c-22.7-16.6,2.8-45.3,18.3-24.9c5.2,6.8,5.6,16.2-0.9,23.6c-1.3,1.5-2.6,2.9-3.9,4.1
		c8.1,1.6,15.4,0,23.4-0.2c13.7-0.3,38.7,4.6,44.3,21.5c-9.2-16-29.2-19-44.2-18.6c-8.9,0.2-17,2-26-0.4
		c-12.2,10.4-26.1,12.5-43.1,8.5c-19.8-4.6-43.9-17.4-74.9-34.9c-30.1-17-56.7,3-84.7,24.1c-33.6,25.2-61.4,60.3-115.2,24.3
		c-48.3,24-85.6,8-117-27V536.5L-45,536.5z M72.7,594.1c61.9-25.1,51.7-113.2,4.5-110.1c-21.9,1.4-32.4,20.2-31.1,46
		C47.4,554.7,57.1,575.6,72.7,594.1L72.7,594.1z M389.3,576.7c12.6-10.6,9.9-31.4-7.3-30.8c-9.7,0.3-15.4,16.5-1.9,26.4
		C382.7,574.1,385.7,575.7,389.3,576.7L389.3,576.7z"/>
	<path class="st0" d="M1.6,152.1c-1.8,11-0.2,25.3,13.3,26.8C16.5,160.3,6,168.2,1.6,152.1L1.6,152.1z"/>
	<path class="st0" d="M19.6,214.5c9.5,0.8,21.4-2.7,21.1-18.6C24.8,196.1,32.7,207.6,19.6,214.5L19.6,214.5z"/>
	<path class="st0" d="M59.2,168.3c-0.9,11.1,1.9,25.2,15.4,25.2C74.7,174.8,64.9,183.8,59.2,168.3L59.2,168.3z"/>
	<path class="st0" d="M172.3,215.3c8.9,3.7,21.2,4.1,24.5-11.3C181.5,199.1,186.5,212.6,172.3,215.3L172.3,215.3z"/>
	<path class="st0" d="M160.1,111.3c-9.4,1.8-20.2,8.5-16.8,23.9C158.7,130.7,148.8,121.7,160.1,111.3L160.1,111.3z"/>
	<path class="st0" d="M251.6,79.2c-6.2,8.4-11,21.8,0,31.1C261,95.2,248.5,95.7,251.6,79.2L251.6,79.2z"/>
	<path class="st0" d="M311.2,272.2c2.1-10.9,1-25.3-12.4-27.4C296.5,263.3,307.3,255.9,311.2,272.2L311.2,272.2z"/>
	<path class="st0" d="M373.5,231.3c9.5,0.5,21.3-3.4,20.6-19.3C378.3,212.7,386.4,223.9,373.5,231.3L373.5,231.3z"/>
	<path class="st0" d="M488.2,615.2c-14.1,2.5-32.4-1.1-33.5-24.8C478.6,588.5,467.9,606.6,488.2,615.2L488.2,615.2z"/>
	<path class="st0" d="M576.4,10.5c-9-3.1-21.4-3.6-25.1,8C566.7,22.5,562,12.1,576.4,10.5L576.4,10.5z"/>
	<path class="st0" d="M549.4,49.7c-9.7,1.3-20.9,6.4-17.5,18.1C547.9,64.4,537.7,57.5,549.4,49.7L549.4,49.7z"/>
	<path class="st0" d="M521.9,17.3c-3.9,7.3-5.4,17.8,7.1,21.7C534.4,26.2,522.8,29.5,521.9,17.3L521.9,17.3z"/>
	<path class="st0" d="M468.7,106.6c0.3,11.2,4.6,24.7,18,22.7C484.8,110.7,476,121.1,468.7,106.6L468.7,106.6z"/>
	<path class="st0" d="M360.2,115.2c1.9,11,8,23.5,20.9,18.9C376.6,116.1,369.4,128.1,360.2,115.2L360.2,115.2z"/>
	<path class="st0" d="M278.2,112.6c-1.8,11-0.3,25.3,13.1,26.9C293.1,120.9,282.5,128.7,278.2,112.6L278.2,112.6z"/>
	<path class="st0" d="M216.8,178.1c-5.3,9.3-8.5,23.2,3.4,30.8C227.8,192.5,215.5,194.9,216.8,178.1L216.8,178.1z"/>
	<path class="st0" d="M242.2,147.6c8.6,4.6,20.8,6.1,25.3-8.9C252.5,132.4,256.5,146.3,242.2,147.6L242.2,147.6z"/>
	<path class="st0" d="M274.7,251.4c8.7,4.3,21,5.4,25-9.8C284.6,235.9,289,249.7,274.7,251.4L274.7,251.4z"/>
	<path class="st0" d="M563.9,578.5c-14.2-1.2-31.4-9.4-28-32.8C559.5,550,545.7,564.9,563.9,578.5L563.9,578.5z"/>
	<path class="st0" d="M644.6,499.2c-1.9,16.5-10,35.9-29.9,30.5C620,502.5,631.8,519.5,644.6,499.2L644.6,499.2z"/>
	<path class="st0" d="M320.6,481.4c8.6,13.3,14.7,33.7-2.6,46.3C305.2,504.1,323.9,506.4,320.6,481.4L320.6,481.4z"/>
	<path class="st0" d="M269.6,609.5c-14.3,0-31.9-6.8-30-30.4C263.5,581.5,250.7,597.4,269.6,609.5L269.6,609.5z"/>
	<path class="st0" d="M344.6,195.7c8.1-5.8,16-16.9,7.9-29.6C339.8,177.2,351.8,181,344.6,195.7L344.6,195.7z"/>
	<path d="M192.4,197.8c-6.3-2.5-11.8-5.2-16.3-8.3c-8.3-5.8-13.6-12.3-15.8-21.9c4.9,1.5,9.1,2.3,13.4-2.9c2.6-3.2,3.2-9.2,0.7-13
		c-3.4-5-8.7-4.5-12-2c-3.8,2.9-5.3,8.7-4.1,15c-10.7-2.5-22.2-14-13.4-32.5c-11,19.1,2.4,31.5,13.8,34.8c2.1,10.9,7.6,17.6,16.7,24
		c4.5,3.1,9.7,5.8,15.9,8.5L192.4,197.8L192.4,197.8z M159.9,165.4c-1.2-5.9,0.7-12,4-14.2c2.7-1.8,7.1-1.8,9.4,2.1
		c1.7,2.8,1.3,7.8-1.8,10.8C167.4,168.1,162.7,166.3,159.9,165.4L159.9,165.4z"/>
	<path d="M470.7,516.7c4.8,1.9,9.1,3.3,13,3.8c7.3,1,13,0,18-4.5c-3.5-1.7-6.4-3.5-6.9-8.9c-0.3-3.3,1.6-7.2,4.7-8.1
		c4-1.2,7,2,8,5.3c1.1,3.7-0.2,8-3.4,11.1c7.4,4.3,18.8,3.6,20.7-12.1c-0.8,17.2-13.7,17.4-21.8,13.3c-5.5,5.3-11.4,6.4-19.4,5.3
		c-3.9-0.6-8.1-1.8-12.8-3.5L470.7,516.7L470.7,516.7z M502.9,514.9c3-2.9,4.2-7.5,3.1-10.6c-0.9-2.5-3.5-4.9-6.4-3.8
		c-2.1,0.8-3.8,3.9-3.1,7.3C497.3,512.4,500.9,513.9,502.9,514.9L502.9,514.9z"/>
	<path d="M421,495.4c5.4,2.2,10.1,4.5,13.9,7.1c7.1,5,11.6,10.6,13.4,18.8c-4.2-1.3-7.8-2.1-11.5,2.3c-2.3,2.7-2.8,7.8-0.7,11
		c2.9,4.3,7.4,3.9,10.3,1.8c3.2-2.4,4.6-7.3,3.6-12.7c9.1,2.2,19,12.1,11.3,27.7c9.6-16.1-1.8-26.8-11.6-29.7
		c-1.8-9.2-6.4-15-14.2-20.5c-3.8-2.7-8.3-5-13.5-7.4L421,495.4L421,495.4z M448.7,523.2c1,5-0.7,10.2-3.6,12.1
		c-2.3,1.5-6.1,1.5-8-1.9c-1.4-2.4-1-6.6,1.6-9.1C442.3,520.8,446.4,522.4,448.7,523.2L448.7,523.2z"/>
	<path d="M345.8,169.3c-7.2,6.2-13.3,12.2-17.9,18.3c-8.7,11.4-13.1,22.3-12.6,35.6c5.7-4.2,10.8-7.3,18.1-2.8
		c4.4,2.8,7.3,10.1,5.3,16.2c-2.6,8-9.5,9.9-14.6,8.3c-5.8-1.9-9.7-8.6-10.4-17.2c-12.8,8.2-23.5,28.5-5.9,47.9
		c-20.6-19.1-7.8-41.3,5.6-51c-1-14.9,3.6-26.1,13.1-38.6c4.6-6.1,10.4-12.1,17.3-18.4L345.8,169.3L345.8,169.3z M315.4,226.3
		c0.5,8.1,5.1,14.9,10.1,16.2c4,1.1,9.6-1.1,11.3-7.2c1.2-4.4-1.1-10.5-6-12.9C324.1,219.3,318.7,223.9,315.4,226.3L315.4,226.3z"/>
	<path d="M390.6,132.1c-12,5.7-22.8,9.9-32.7,12c-18.4,3.9-33.1,2.1-46.6-8.7c8.7-5.1,15.8-10.1,16.6-24.1c0.5-8.5-5-18.3-12.9-20
		c-10.3-2.3-17.6,6.2-19.7,14.9c-2.4,9.8,1.5,20.5,10,28.1c-18.3,12.2-47.6,12.4-54.4-27.8c4.2,44.4,37.1,42.7,57.4,30.6
		c14.7,12.8,29.9,14.6,50.1,10.4c9.8-2.1,20.5-5.9,32.3-11L390.6,132.1L390.6,132.1z M308.2,132.8c-8-6.9-11.7-18.7-9.3-26.9
		c1.9-6.6,8.4-13.2,16-10.9c5.5,1.7,10.1,9.5,8.9,18.4C322.1,125.5,313.2,129.9,308.2,132.8L308.2,132.8z"/>
	<path d="M577.7,158.6c-9-9.8-16.3-19-21.5-27.8c-9.7-16.5-13.4-31.1-9.2-47.2c7.3,6.9,14,12.2,25.9,8.9
		c7.3-2.1,13.4-10.1,12.1-18.2c-1.7-10.5-11.4-15-19.3-14.5c-9,0.6-16.6,7.5-19.8,17.8c-16.6-13.9-27-42,4-60.2
		c-35.4,17-22.5,48-5.2,64c-5.5,17.8-1.6,33,9,51c5.2,8.8,12.1,18,20.6,27.8L577.7,158.6L577.7,158.6z M548.1,79.9
		c2.9-9.7,11.4-16.7,19.1-16.7c6.2-0.1,13.9,4.2,14.7,12.2c0.5,5.7-4.4,12.5-12.2,13.9C559,91.1,552.2,83.8,548.1,79.9L548.1,79.9z"
		/>
	<path class="st0" d="M132.2,419.9c-9.2,5-22.2,6.7-26.9-9.7C121.3,403.4,117,418.5,132.2,419.9L132.2,419.9z"/>
	<path d="M0.1,402.9c10.9,6.2,20.8,10.8,29.8,13.1c16.8,4.2,30.2,2.2,42.5-9.5c-7.9-5.5-14.4-11-15.1-26.2
		c-0.4-9.3,4.6-19.9,11.7-21.8c9.4-2.5,16,6.8,18,16.2c2.2,10.7-1.4,22.4-9.1,30.6c16.7,13.3,43.4,13.5,49.6-30.3
		c-3.9,48.3-33.8,46.6-52.3,33.3c-13.4,13.9-27.3,15.9-45.7,11.3c-9-2.3-18.7-6.4-29.5-12L0.1,402.9L0.1,402.9z M75.3,403.7
		c7.3-7.5,10.7-20.4,8.5-29.3c-1.8-7.2-7.7-14.3-14.6-11.8c-5,1.8-9.2,10.4-8.1,20.1C62.6,395.8,70.7,400.6,75.3,403.7L75.3,403.7z"
		/>
	<path class="st0" d="M531,179.2c-8.1-7.9-13.7-19.9,2.4-27.4C545.5,165.8,528,164.4,531,179.2L531,179.2z"/>
	<path class="st0" d="M518.3,279c-10.9,0.5-24.5-3.4-23.8-19.4C512.9,260.3,503.5,271.5,518.3,279L518.3,279z"/>
</g>
</svg>
