<?xml version="1.0" encoding="utf-8"?>
<!-- Generator: Adobe Illustrator 19.1.0, SVG Export Plug-In . SVG Version: 6.00 Build 0)  -->
<svg version="1.1" id="Layer_1" xmlns="http://www.w3.org/2000/svg" xmlns:xlink="http://www.w3.org/1999/xlink" x="0px" y="0px"
	 viewBox="0 0 612 792" style="fill:rgba(147, 110, 68, 0.8); enable-background:new 0 0 612 792;" xml:space="preserve">
<g>
	<path d="M720.2,389.2c-64.9-11.3-86.7-95.4-117.9-153.7c-33.6-62.9-74.7-118.2-143.1-87.4c48.2,32.4,55.2,138.8-9.9,146.2
		c-63.4,7.2-78.5-107.9-3.8-147.4c-50.2-29.1-79.3,6.3-118.9,39.5c-31.8,26.8-64.4,49.8-100.3,32.1c-35.4-17.5-62.8-32.1-85-35.8
		c-17.7-2.9-32.1-0.1-44.7,10.7c3.4,1,6.5,2.4,9,4.1c26.1,17.2-2.1,52-20.2,29.8c-6-7.4-6.7-18.1,0.4-27c1.4-1.8,2.9-3.5,4.4-5
		c-9.3-1.2-17.5,1.2-26.5,2c-15.6,1.4-44-2.2-50.7-21.1c10.8,17.6,33.6,19.4,50.5,17.9c10.1-0.9,19.2-3.6,29.5-1.6
		c13.6-12.8,29.2-16.3,48.6-13.1c22.6,3.7,50.2,16.5,85.7,34.1c34.5,17.1,64.2-7.8,95.4-34.1c37.4-31.5,68.1-73.7,129.9-36.7
		c77.4-44.5,131.3,5.9,177.2,80.6c22.5,36.6,52.5,82.3,90.4,86.1C720.2,310.7,720.2,388,720.2,389.2L720.2,389.2z M452.1,151.6
		c-69.5,33.5-55.8,133.4-2.4,126.2c24.8-3.3,36.3-25.6,34.1-55C481.7,194.6,470.2,171.5,452.1,151.6L452.1,151.6z M93.8,196
		c-14,13-10.4,36.6,9,34.6c10.9-1.1,17.1-20,1.5-30.3C101.4,198.5,97.9,197,93.8,196L93.8,196z"/>
	<path d="M-45,311c31.3,37.2,48.6,94.7,70.9,139.4c35.2,70.4,78.7,133.1,153.8,104.9c-51.7-38.5-56.9-153.9,14.1-157.1
		c69.2-3.1,83,122.3,0.8,159.4c54,35.2,86.5-0.9,130.4-33.9c35.3-26.5,71.4-49,110.1-27.2c38.1,21.5,67.7,39.3,91.8,44.9
		c19.2,4.5,35,2.5,48.9-8.3c-3.7-1.3-7-3.1-9.8-5.1c-28.1-20.5,3.5-56,22.7-30.7c6.4,8.5,6.9,20-1.1,29.1c-1.6,1.8-3.2,3.5-4.9,5.1
		c10.1,2,19,0,28.9-0.2c17-0.4,47.8,5.7,54.7,26.5c-11.4-19.8-36.1-23.5-54.6-23c-11,0.3-20.9,2.5-32.2-0.5
		c-15.1,12.8-32.2,15.4-53.3,10.5c-24.5-5.7-54.3-21.6-92.6-43.2c-37.2-21-70.1,3.7-104.7,29.7c-41.5,31.2-75.9,74.5-142.4,30
		c-85,42.5-142.5-15.9-190.8-99.9c-11.6-20.2-25.1-42.8-40.7-61.5V311L-45,311z M187.7,552c76.5-31.1,63.9-139.9,5.5-136
		c-27.1,1.8-40.1,25-38.4,56.9C156.4,503.4,168.4,529.2,187.7,552L187.7,552z M578.9,530.6c15.5-13.1,12.2-38.8-9.1-38.1
		c-11.9,0.4-19,20.3-2.3,32.6C570.7,527.4,574.5,529.3,578.9,530.6L578.9,530.6z"/>
	<path d="M-45,536.5c26.3,45.7,59.5,79.6,111.3,60.2c-41.8-31.2-46-124.6,11.4-127.2c56-2.5,67.2,98.9,0.6,129
		c43.7,28.5,70-0.7,105.5-27.4c28.6-21.5,57.8-39.7,89.1-22c30.8,17.4,54.8,31.8,74.3,36.3c15.5,3.6,28.3,2,39.6-6.7
		c-3-1.1-5.7-2.5-7.9-4.1c-22.7-16.6,2.8-45.3,18.3-24.9c5.2,6.8,5.6,16.2-0.9,23.6c-1.3,1.5-2.6,2.9-3.9,4.1
		c8.1,1.6,15.4,0,23.4-0.2c13.7-0.3,38.7,4.6,44.3,21.5c-9.2-16-29.2-19-44.2-18.6c-8.9,0.2-17,2-26-0.4
		c-12.2,10.4-26.1,12.5-43.1,8.5c-19.8-4.6-43.9-17.4-74.9-34.9c-30.1-17-56.7,3-84.7,24.1c-33.6,25.2-61.4,60.3-115.2,24.3
		c-48.3,24-85.6,8-117-27V536.5L-45,536.5z M72.7,594.1c61.9-25.1,51.7-113.2,4.5-110.1c-21.9,1.4-32.4,20.2-31.1,46
		C47.4,554.7,57.1,575.6,72.7,594.1L72.7,594.1z M389.3,576.7c12.6-10.6,9.9-31.4-7.3-30.8c-9.7,0.3-15.4,16.5-1.9,26.4
		C382.7,574.1,385.7,575.7,389.3,576.7L389.3,576.7z"/>
	<path d="M0.8,151.3c-1.8,11-0.2,25.3,13.3,26.8C15.7,159.5,5.2,167.4,0.8,151.3L0.8,151.3z"/>
	<path d="M18.8,213.7c9.5,0.8,21.4-2.7,21.1-18.6C24,195.3,31.9,206.8,18.8,213.7L18.8,213.7z"/>
	<path d="M58.4,167.5c-0.9,11.1,1.9,25.2,15.4,25.2C73.9,174,64.1,183,58.4,167.5L58.4,167.5z"/>
	<path d="M171.5,214.5c8.9,3.7,21.2,4.1,24.5-11.3C180.7,198.3,185.7,211.8,171.5,214.5L171.5,214.5z"/>
	<path d="M179.1,296c-11.9-1.7-25.6-7.8-21.3-22C177.4,278.2,164.8,286.4,179.1,296L179.1,296z"/>
	<path d="M99.4,56.9c6.7-6.8,11.9-17.5,0-25C89.2,44.1,102.7,43.7,99.4,56.9L99.4,56.9z"/>
	<path d="M301.5,313c2.7-15.1,1.3-35.1-16-38C282.6,300.7,296.5,290.4,301.5,313L301.5,313z"/>
	<path d="M372.7,230.5c9.5,0.5,21.3-3.4,20.6-19.3C377.5,211.9,385.6,223.1,372.7,230.5L372.7,230.5z"/>
	<path d="M488.2,615.2c-14.1,2.5-32.4-1.1-33.5-24.8C478.6,588.5,467.9,606.6,488.2,615.2L488.2,615.2z"/>
	<path d="M576.4,10.5c-9-3.1-21.4-3.6-25.1,8C566.7,22.5,562,12.1,576.4,10.5L576.4,10.5z"/>
	<path d="M549.4,49.7c-9.7,1.3-20.9,6.4-17.5,18.1C547.9,64.4,537.7,57.5,549.4,49.7L549.4,49.7z"/>
	<path d="M521.9,17.3c-3.9,7.3-5.4,17.8,7.1,21.7C534.4,26.2,522.8,29.5,521.9,17.3L521.9,17.3z"/>
	<path d="M467.9,105.8c0.3,11.2,4.6,24.7,18,22.7C484,109.9,475.2,120.3,467.9,105.8L467.9,105.8z"/>
	<path d="M359.4,114.4c1.9,11,8,23.5,20.9,18.9C375.8,115.3,368.6,127.3,359.4,114.4L359.4,114.4z"/>
	<path d="M70.7,30.1C72.6,21.2,71,9.7,56.5,8.4C54.6,23.4,66,17.1,70.7,30.1L70.7,30.1z"/>
	<path d="M216,177.3c-5.3,9.3-8.5,23.2,3.4,30.8C227,191.7,214.7,194.1,216,177.3L216,177.3z"/>
	<path d="M109.5,1.9C100.2-1.8,87.1-3,82.2,9.1C98.4,14.2,94.1,3,109.5,1.9L109.5,1.9z"/>
	<path d="M254.5,284.2c11.2,6,27,7.5,32.2-13.6C267.3,262.7,272.9,281.8,254.5,284.2L254.5,284.2z"/>
	<path d="M563.9,578.5c-14.2-1.2-31.4-9.4-28-32.8C559.5,550,545.7,564.9,563.9,578.5L563.9,578.5z"/>
	<path d="M644.6,499.2c-1.9,16.5-10,35.9-29.9,30.5C620,502.5,631.8,519.5,644.6,499.2L644.6,499.2z"/>
	<path d="M320.6,481.4c8.6,13.3,14.7,33.7-2.6,46.3C305.2,504.1,323.9,506.4,320.6,481.4L320.6,481.4z"/>
	<path d="M269.6,609.5c-14.3,0-31.9-6.8-30-30.4C263.5,581.5,250.7,597.4,269.6,609.5L269.6,609.5z"/>
	<path d="M343.8,194.9c8.1-5.8,16-16.9,7.9-29.6C339,176.4,351,180.2,343.8,194.9L343.8,194.9z"/>
	<path d="M220.1,216.5c-8,2.3-15,4.8-20.7,7.6c-10.5,5.3-17.3,11.3-20,20.1c6.2-1.4,11.5-2.1,17,2.7c3.3,2.9,4.1,8.5,0.9,12
		c-4.3,4.6-11,4.1-15.2,1.8c-4.8-2.7-6.7-8-5.2-13.8c-13.6,2.3-28.2,12.9-17,29.9c-14-17.6,3-29,17.5-32c2.7-10,9.6-16.2,21.2-22.1
		c5.7-2.8,12.3-5.3,20.2-7.8L220.1,216.5L220.1,216.5z M178.9,246.3c-1.5,5.4,0.9,11,5.1,13.1c3.4,1.7,9,1.7,11.9-1.9
		c2.2-2.6,1.6-7.2-2.3-9.9C188.4,243.8,182.4,245.4,178.9,246.3L178.9,246.3z"/>
	<path d="M470.7,516.7c4.8,1.9,9.1,3.3,13,3.8c7.3,1,13,0,18-4.5c-3.5-1.7-6.4-3.5-6.9-8.9c-0.3-3.3,1.6-7.2,4.7-8.1
		c4-1.2,7,2,8,5.3c1.1,3.7-0.2,8-3.4,11.1c7.4,4.3,18.8,3.6,20.7-12.1c-0.8,17.2-13.7,17.4-21.8,13.3c-5.5,5.3-11.4,6.4-19.4,5.3
		c-3.9-0.6-8.1-1.8-12.8-3.5L470.7,516.7L470.7,516.7z M502.9,514.9c3-2.9,4.2-7.5,3.1-10.6c-0.9-2.5-3.5-4.9-6.4-3.8
		c-2.1,0.8-3.8,3.9-3.1,7.3C497.3,512.4,500.9,513.9,502.9,514.9L502.9,514.9z"/>
	<path d="M421,495.4c5.4,2.2,10.1,4.5,13.9,7.1c7.1,5,11.6,10.6,13.4,18.8c-4.2-1.3-7.8-2.1-11.5,2.3c-2.3,2.7-2.8,7.8-0.7,11
		c2.9,4.3,7.4,3.9,10.3,1.8c3.2-2.4,4.6-7.3,3.6-12.7c9.1,2.2,19,12.1,11.3,27.7c9.6-16.1-1.8-26.8-11.6-29.7
		c-1.8-9.2-6.4-15-14.2-20.5c-3.8-2.7-8.3-5-13.5-7.4L421,495.4L421,495.4z M448.7,523.2c1,5-0.7,10.2-3.6,12.1
		c-2.3,1.5-6.1,1.5-8-1.9c-1.4-2.4-1-6.6,1.6-9.1C442.3,520.8,446.4,522.4,448.7,523.2L448.7,523.2z"/>
	<path d="M345,169.2c-9.3,8.6-17.1,16.9-23,25.4c-11.2,15.8-16.9,30.9-16.2,49.4c7.3-5.8,13.9-10.1,23.3-3.9
		c5.7,3.9,9.4,14,6.8,22.5c-3.3,11.1-12.2,13.7-18.8,11.5c-7.5-2.6-12.5-11.9-13.4-23.9c-16.5,11.4-30.2,39.5-7.6,66.5
		c-26.5-26.5-10-57.3,7.2-70.8c-1.3-20.7,4.6-36.2,16.9-53.6c5.9-8.5,13.4-16.8,22.3-25.5L345,169.2L345,169.2z M305.9,248.3
		c0.6,11.2,6.6,20.7,13,22.5c5.1,1.5,12.4-1.5,14.5-10c1.5-6.1-1.4-14.6-7.7-17.9C317.1,238.6,310.1,245,305.9,248.3L305.9,248.3z"
		/>
	<path d="M-50.7,14.4c13-4.6,24.6-8,35.3-9.6c19.9-3.1,35.7-1.7,50.3,7c-9.4,4.1-17.1,8.1-17.9,19.4c-0.5,6.8,5.4,14.7,13.9,16.1
		c11.1,1.8,19-5,21.3-12c2.6-7.9-1.6-16.5-10.8-22.6c19.8-9.8,51.4-10,58.7,22.3c-4.5-35.7-40.1-34.3-62-24.6
		C22.3,0.1,5.9-1.4-15.9,2c-10.6,1.7-22.1,4.7-34.9,8.8L-50.7,14.4L-50.7,14.4z M38.3,13.8c8.6,5.5,12.6,15,10,21.6
		c-2.1,5.3-9.1,10.6-17.3,8.8c-5.9-1.4-10.9-7.6-9.6-14.8C23.3,19.7,32.9,16.2,38.3,13.8L38.3,13.8z"/>
	<path d="M576.9,157.8c-9-9.8-16.3-19-21.5-27.8c-9.7-16.5-13.4-31.1-9.2-47.2c7.3,6.9,14,12.2,25.9,8.9
		c7.3-2.1,13.4-10.1,12.1-18.2c-1.7-10.5-11.4-15-19.3-14.5c-9,0.6-16.6,7.5-19.8,17.8c-16.6-13.9-27-42,4-60.2
		c-35.4,17-22.5,48-5.2,64c-5.5,17.8-1.6,33,9,51c5.2,8.8,12.1,18,20.6,27.8L576.9,157.8L576.9,157.8z M547.3,79.1
		c2.9-9.7,11.4-16.7,19.1-16.7c6.2-0.1,13.9,4.2,14.7,12.2c0.5,5.7-4.4,12.5-12.2,13.9C558.2,90.3,551.4,83,547.3,79.1L547.3,79.1z"
		/>
	<path d="M132.2,419.9c-9.2,5-22.2,6.7-26.9-9.7C121.3,403.4,117,418.5,132.2,419.9L132.2,419.9z"/>
	<path d="M0.1,402.9c10.9,6.2,20.8,10.8,29.8,13.1c16.8,4.2,30.2,2.2,42.5-9.5c-7.9-5.5-14.4-11-15.1-26.2
		c-0.4-9.3,4.6-19.9,11.7-21.8c9.4-2.5,16,6.8,18,16.2c2.2,10.7-1.4,22.4-9.1,30.6c16.7,13.3,43.4,13.5,49.6-30.3
		c-3.9,48.3-33.8,46.6-52.3,33.3c-13.4,13.9-27.3,15.9-45.7,11.3c-9-2.3-18.7-6.4-29.5-12L0.1,402.9L0.1,402.9z M75.3,403.7
		c7.3-7.5,10.7-20.4,8.5-29.3c-1.8-7.2-7.7-14.3-14.6-11.8c-5,1.8-9.2,10.4-8.1,20.1C62.6,395.8,70.7,400.6,75.3,403.7L75.3,403.7z"
		/>
	<path d="M530.2,178.4c-8.1-7.9-13.7-19.9,2.4-27.4C544.7,165,527.2,163.6,530.2,178.4L530.2,178.4z"/>
	<path d="M518.3,279c-10.9,0.5-24.5-3.4-23.8-19.4C512.9,260.3,503.5,271.5,518.3,279L518.3,279z"/>
	<path d="M582.3,345.1c-9,3.2-21.4,3.7-25.1-8.2C572.6,332.7,567.9,343.4,582.3,345.1L582.3,345.1z"/>
	<path d="M527.8,338.1c-3.9-7.5-5.4-18.3,7.1-22.4C540.3,328.9,528.7,325.5,527.8,338.1L527.8,338.1z"/>
	<path d="M582.8,193.3c-9,10.1-16.3,19.6-21.5,28.6c-9.7,17-13.4,32-9.2,48.6c7.3-7.1,14-12.6,25.9-9.2c7.3,2.2,13.4,10.4,12.1,18.8
		c-1.7,10.8-11.4,15.5-19.3,14.9c-9-0.6-16.6-7.7-19.8-18.3c-16.6,14.3-27,43.3,4,62c-35.4-17.5-22.5-49.5-5.2-65.9
		c-5.5-18.3-1.6-34,9-52.5c5.2-9.1,12.1-18.5,20.6-28.6L582.8,193.3L582.8,193.3z M553.2,274.4c2.9,10,11.4,17.2,19.1,17.2
		c6.2,0.1,13.9-4.3,14.7-12.6c0.5-5.9-4.4-12.9-12.2-14.3C564.1,262.8,557.3,270.3,553.2,274.4L553.2,274.4z"/>
	<path d="M385.7,383.4c-2.5-11.8-10.4-25.3-27.1-20.3C364.4,382.5,373.7,369.6,385.7,383.4L385.7,383.4z"/>
	<path d="M305.7,65.8c-9,3.2-21.4,3.7-25.1-8.2C296,53.5,291.3,64.2,305.7,65.8L305.7,65.8z"/>
	<path d="M251.2,58.8c-3.9-7.5-5.4-18.3,7.1-22.4C263.7,49.7,252.1,46.3,251.2,58.8L251.2,58.8z"/>
	<path d="M306.2-85.9c-9,10.1-16.3,19.6-21.5,28.6c-9.7,17-13.4,32-9.2,48.6c7.3-7.1,14-12.6,25.9-9.2c7.3,2.2,13.4,10.4,12.1,18.8
		c-1.7,10.8-11.4,15.5-19.3,14.9c-9-0.6-16.6-7.7-19.8-18.3c-16.6,14.3-27,43.3,4,62C243,42,255.9,10.1,273.2-6.4
		c-5.5-18.3-1.6-34,9-52.5c5.2-9.1,12.1-18.5,20.6-28.6L306.2-85.9L306.2-85.9z M276.6-4.9c2.9,10,11.4,17.2,19.1,17.2
		c6.2,0.1,13.9-4.3,14.7-12.6c0.5-5.9-4.4-12.9-12.2-14.3C287.5-16.4,280.7-8.9,276.6-4.9L276.6-4.9z"/>
</g>
</svg>
