<?xml version="1.0" encoding="utf-8"?>
<!-- Generator: Adobe Illustrator 19.1.0, SVG Export Plug-In . SVG Version: 6.00 Build 0)  -->
<svg version="1.1" id="Layer_1" xmlns="http://www.w3.org/2000/svg" xmlns:xlink="http://www.w3.org/1999/xlink" x="0px" y="0px"
	 viewBox="0 0 612 792" style="enable-background:new 0 0 612 792;" xml:space="preserve">
<style type="text/css">
	.st0{fill-rule:evenodd;clip-rule:evenodd;}
</style>
<g>
	<path d="M704,441.3c-69-11.5-92.1-97.6-125.3-157.4c-35.7-64.4-79.4-121-152.1-89.4c51.2,33.1,58.6,142.1-10.5,149.7
		c-67.4,7.4-83.4-110.4-4.1-150.9c-53.4-29.8-84.2,6.4-126.3,40.5c-33.8,27.4-68.5,51-106.7,32.8c-37.6-17.9-66.7-32.9-90.4-36.6
		c-18.8-3-34.1-0.1-47.5,11c3.7,1,6.9,2.5,9.6,4.2c27.8,17.6-2.2,53.2-21.4,30.5c-6.4-7.6-7.1-18.5,0.4-27.6
		c1.5-1.8,3.1-3.6,4.6-5.1c-9.9-1.3-18.5,1.2-28.1,2.1c-16.5,1.5-46.7-2.3-53.9-21.6c11.5,18,35.7,19.9,53.6,18.3
		c10.7-1,20.4-3.7,31.3-1.6c14.5-13.1,31.1-16.7,51.7-13.4c24,3.8,53.3,16.9,91.1,34.9c36.7,17.5,68.2-8,101.3-34.9
		c39.8-32.2,72.4-75.4,138.1-37.6c82.3-45.6,139.5,6,188.3,82.5c23.9,37.5,55.8,84.3,96,88.1C704,360.9,704,440.1,704,441.3
		L704,441.3z M419,198.1c-73.8,34.3-59.3,136.5-2.6,129.2c26.3-3.4,38.5-26.2,36.3-56.3C450.5,242.1,438.3,218.5,419,198.1
		L419,198.1z M38.3,243.6C23.4,256.9,27.2,281,47.9,279c11.6-1.1,18.1-20.5,1.6-31C46.4,246.1,42.6,244.5,38.3,243.6L38.3,243.6z"/>
	<path d="M-16.4,325.1C10.3,357.2,25,406.7,44,445.3c30,60.7,67,114.7,131.1,90.5c-44.1-33.2-48.5-132.7,12-135.5
		c59-2.7,70.8,105.4,0.7,137.4c46.1,30.3,73.7-0.8,111.1-29.2c30.1-22.9,60.9-42.3,93.9-23.5c32.5,18.5,57.7,33.9,78.3,38.7
		c16.4,3.8,29.8,2.1,41.7-7.1c-3.2-1.2-6-2.7-8.3-4.4c-23.9-17.7,3-48.3,19.3-26.5c5.5,7.3,5.9,17.2-0.9,25.1
		c-1.4,1.6-2.7,3-4.1,4.4c8.6,1.8,16.2,0,24.6-0.2c14.5-0.4,40.8,4.9,46.6,22.9c-9.7-17-30.8-20.2-46.5-19.8
		c-9.4,0.2-17.9,2.1-27.4-0.4c-12.9,11.1-27.5,13.3-45.4,9.1c-20.9-4.9-46.2-18.6-78.9-37.2c-31.7-18.1-59.7,3.2-89.2,25.6
		c-35.4,26.9-64.7,64.3-121.4,25.9c-72.8,36.5-121.8-13.8-162.9-86.3c-9.9-17.4-21.4-36.9-34.7-53V325.1L-16.4,325.1z M181.9,532.9
		c65.2-26.8,54.4-120.6,4.7-117.3c-23.1,1.5-34.2,21.5-32.8,49C155.2,491,165.5,513.2,181.9,532.9L181.9,532.9z M515.4,514.4
		c13.2-11.3,10.4-33.4-7.7-32.8c-10.2,0.3-16.2,17.5-2,28.1C508.4,511.6,511.6,513.3,515.4,514.4L515.4,514.4z"/>
	<path d="M-16.4,519.5c22.4,39.4,50.7,68.6,94.9,51.9C42.8,544.6,39.2,464,88.2,461.8c47.8-2.2,57.3,85.3,0.5,111.2
		c37.3,24.5,59.7-0.6,89.9-23.6c24.4-18.5,49.2-34.2,75.9-19c26.3,15,46.7,27.4,63.3,31.3c13.2,3.1,24.1,1.7,33.7-5.8
		c-2.6-0.9-4.8-2.1-6.7-3.6c-19.4-14.3,2.4-39.1,15.6-21.4c4.4,5.9,4.8,13.9-0.7,20.3c-1.1,1.3-2.2,2.5-3.4,3.6
		c6.9,1.4,13.1,0,19.9-0.2c11.7-0.3,33,4,37.7,18.5c-7.9-13.8-24.9-16.4-37.6-16.1c-7.6,0.2-14.4,1.7-22.2-0.3
		c-10.4,9-22.2,10.8-36.7,7.3c-16.9-4-37.4-15-63.9-30.1c-25.7-14.6-48.3,2.6-72.2,20.7c-28.6,21.8-52.4,52-98.2,20.9
		c-41.2,20.7-73,6.9-99.8-23.3V519.5L-16.4,519.5z M83.9,569.1c52.7-21.7,44.1-97.6,3.8-94.9c-18.7,1.2-27.7,17.4-26.5,39.7
		C62.3,535.2,70.6,553.2,83.9,569.1L83.9,569.1z M353.8,554.2c10.7-9.1,8.4-27-6.2-26.6c-8.2,0.3-13.1,14.2-1.6,22.7
		C348.1,551.9,350.8,553.2,353.8,554.2L353.8,554.2z"/>
	<path class="st0" d="M-60.6,197.7c-1.9,11.2-0.2,25.9,14.1,27.5C-44.7,206.1-55.9,214.2-60.6,197.7L-60.6,197.7z"/>
	<path class="st0" d="M-41.4,261.7c10,0.9,22.7-2.7,22.4-19C-35.9,242.8-27.5,254.5-41.4,261.7L-41.4,261.7z"/>
	<path class="st0" d="M0.7,214.4c-0.9,11.4,2,25.8,16.4,25.8C17.1,221,6.7,230.2,0.7,214.4L0.7,214.4z"/>
	<path class="st0" d="M120.9,262.4c9.5,3.8,22.5,4.2,26.1-11.6C130.6,245.9,135.9,259.7,120.9,262.4L120.9,262.4z"/>
	<path class="st0" d="M107.9,156c-9.9,1.9-21.5,8.7-17.9,24.5C106.5,175.8,95.9,166.7,107.9,156L107.9,156z"/>
	<path class="st0" d="M205.1,123.2c-6.6,8.6-11.7,22.3,0,31.8C215.1,139.5,201.8,140.1,205.1,123.2L205.1,123.2z"/>
	<path class="st0" d="M268.4,320.7c2.3-11.1,1-25.9-13.2-28.1C252.9,311.6,264.3,304,268.4,320.7L268.4,320.7z"/>
	<path class="st0" d="M334.7,300.5c10.1,0.5,22.6-3.5,21.9-19.8C339.8,281.5,348.4,292.9,334.7,300.5L334.7,300.5z"/>
	<path class="st0" d="M438.1,587.3c-12,2.2-27.6-0.9-28.6-21.4C429.9,564.4,420.8,579.9,438.1,587.3L438.1,587.3z"/>
	<path class="st0" d="M600.6,50.2c-9.4-4.1-22.4-4.9-26.4,10.8C590.5,66.4,585.5,52.4,600.6,50.2L600.6,50.2z"/>
	<path class="st0" d="M572.4,102.9c-9.9,1.8-21.5,8.6-18,24.4C570.8,122.7,560.3,113.5,572.4,102.9L572.4,102.9z"/>
	<path class="st0" d="M539.9,64.3c-4.3,10.4-5.8,25.1,7.7,30.6C553.5,76.9,540.9,81.6,539.9,64.3L539.9,64.3z"/>
	<path class="st0" d="M435.9,151.2c0.4,11.4,4.9,25.3,19.1,23.3C453,155.4,443.7,166.1,435.9,151.2L435.9,151.2z"/>
	<path class="st0" d="M320.6,160c2,11.2,8.5,24.1,22.2,19.4C338,161,330.4,173.2,320.6,160L320.6,160z"/>
	<path class="st0" d="M233.4,157.3c-1.9,11.2-0.3,25.9,14,27.6C249.2,165.8,238,173.8,233.4,157.3L233.4,157.3z"/>
	<path class="st0" d="M168.1,224.4c-5.6,9.5-9.1,23.8,3.6,31.5C179.9,239.1,166.8,241.6,168.1,224.4L168.1,224.4z"/>
	<path class="st0" d="M195.2,193.2c9.2,4.7,22.2,6.3,26.8-9.1C206.1,177.6,210.4,191.9,195.2,193.2L195.2,193.2z"/>
	<path class="st0" d="M229.7,299.4c9.3,4.4,22.3,5.6,26.6-10C240.2,283.6,244.9,297.7,229.7,299.4L229.7,299.4z"/>
	<path class="st0" d="M502.6,555.7c-12.1-1-26.7-8.1-23.9-28.3C498.9,531.2,487.1,544,502.6,555.7L502.6,555.7z"/>
	<path class="st0" d="M571.5,487.3c-1.6,14.2-8.6,31-25.5,26.3C550.5,490.2,560.5,504.9,571.5,487.3L571.5,487.3z"/>
	<path class="st0" d="M295.2,472c7.4,11.4,12.5,29-2.2,39.9C282.1,491.6,298,493.5,295.2,472L295.2,472z"/>
	<path class="st0" d="M251.8,582.4c-12.2,0-27.2-5.8-25.5-26.2C246.6,558.3,235.6,572,251.8,582.4L251.8,582.4z"/>
	<path class="st0" d="M304,242.4c8.6-6,17-17.3,8.4-30.3C298.9,223.4,311.6,227.4,304,242.4L304,242.4z"/>
	<path d="M142.3,244.6c-6.7-2.6-12.5-5.3-17.3-8.5c-8.9-5.9-14.4-12.6-16.8-22.4c5.2,1.5,9.7,2.4,14.2-2.9c2.8-3.2,3.4-9.4,0.7-13.3
		c-3.6-5.1-9.2-4.6-12.7-2c-4,3-5.6,8.9-4.3,15.3c-11.3-2.5-23.6-14.4-14.3-33.3c-11.7,19.5,2.5,32.2,14.7,35.6
		c2.3,11.1,8,18,17.8,24.5c4.7,3.2,10.3,6,16.8,8.7L142.3,244.6L142.3,244.6z M107.7,211.3c-1.2-6,0.8-12.3,4.3-14.6
		c2.8-1.9,7.5-1.9,10,2.1c1.8,2.9,1.3,8-1.9,11C115.7,214.1,110.6,212.2,107.7,211.3L107.7,211.3z"/>
	<path d="M423.2,502.4c4.1,1.6,7.7,2.8,11.1,3.3c6.2,0.9,11,0,15.4-3.9c-3-1.5-5.4-3-5.9-7.7c-0.3-2.8,1.4-6.2,4-7
		c3.4-1,5.9,1.7,6.8,4.5c1,3.2-0.2,6.9-2.9,9.6c6.3,3.7,16,3.1,17.7-10.4c-0.7,14.9-11.7,15-18.6,11.4c-4.7,4.6-9.7,5.5-16.5,4.5
		c-3.3-0.5-6.9-1.5-10.9-3L423.2,502.4L423.2,502.4z M450.6,500.8c2.6-2.5,3.6-6.5,2.7-9.2c-0.7-2.2-3-4.2-5.5-3.3
		c-1.8,0.7-3.2,3.4-2.7,6.3C445.9,498.7,448.9,500,450.6,500.8L450.6,500.8z"/>
	<path d="M380.8,484c4.6,1.9,8.6,3.9,11.9,6.2c6.1,4.3,9.9,9.1,11.5,16.2c-3.5-1.1-6.6-1.8-9.8,2c-1.9,2.3-2.4,6.7-0.6,9.5
		c2.4,3.7,6.3,3.4,8.8,1.5c2.8-2.1,3.9-6.3,3.1-10.9c7.8,1.9,16.2,10.4,9.6,23.9c8.1-13.9-1.6-23.1-9.9-25.6
		c-1.5-8-5.4-13-12.1-17.7c-3.2-2.3-7.1-4.4-11.5-6.3L380.8,484L380.8,484z M404.5,508c0.8,4.3-0.6,8.8-3,10.4
		c-1.9,1.3-5.2,1.3-6.8-1.6c-1.2-2.1-0.9-5.7,1.3-7.9C399,506,402.4,507.4,404.5,508L404.5,508z"/>
	<path d="M305.3,215.4c-7.7,6.4-14.1,12.5-19.1,18.8c-9.2,11.6-13.9,22.8-13.4,36.4c6.1-4.3,11.5-7.5,19.2-2.8
		c4.7,2.9,7.8,10.4,5.7,16.6c-2.7,8.2-10.1,10.2-15.5,8.4c-6.2-2-10.3-8.8-11-17.6c-13.6,8.4-25,29.2-6.3,49
		c-21.9-19.5-8.3-42.3,6-52.2c-1.1-15.2,3.8-26.7,13.9-39.5c4.9-6.2,11.1-12.4,18.4-18.9L305.3,215.4L305.3,215.4z M273,273.7
		c0.6,8.3,5.4,15.3,10.7,16.6c4.3,1.1,10.3-1.1,12-7.3c1.2-4.5-1.1-10.8-6.3-13.2C282.2,266.5,276.4,271.2,273,273.7L273,273.7z"/>
	<path d="M352.9,177.3c-12.7,5.9-24.2,10.2-34.8,12.3c-19.6,4-35.2,2.1-49.6-8.9c9.3-5.2,16.8-10.3,17.6-24.6
		c0.5-8.7-5.3-18.7-13.7-20.5c-10.9-2.4-18.7,6.4-20.9,15.3c-2.6,10.1,1.6,21,10.6,28.7c-19.4,12.5-50.6,12.6-57.8-28.5
		c4.5,45.4,39.4,43.7,61,31.3c15.6,13.1,31.8,15,53.3,10.6c10.4-2.1,21.8-6,34.4-11.3L352.9,177.3L352.9,177.3z M265.2,178
		c-8.5-7.1-12.4-19.1-9.9-27.5c2.1-6.8,9-13.5,17-11.1c5.8,1.7,10.8,9.8,9.5,18.8C280.1,170.6,270.6,175.1,265.2,178L265.2,178z"/>
	<path d="M615.1,282.8c-12.2-15.5-22.2-30-29.3-44c-13.2-26.1-18.2-49.2-12.5-74.7c9.9,10.9,19,19.3,35.2,14
		c9.9-3.2,18.3-16,16.5-28.8c-2.3-16.7-15.5-23.8-26.3-23c-12.3,0.9-22.5,11.8-27,28.1c-22.6-22-36.8-66.4,5.4-95.2
		c-48.2,26.9-30.6,75.9-7.1,101.1c-7.4,28.2-2.2,52.1,12.3,80.7c7.1,13.9,16.5,28.4,28,43.9L615.1,282.8L615.1,282.8z M574.8,158.2
		c4-15.3,15.5-26.3,26-26.5c8.4-0.1,18.9,6.7,19.9,19.2c0.7,9-5.9,19.8-16.6,22C589.7,176,580.5,164.6,574.8,158.2L574.8,158.2z"/>
</g>
</svg>
