<?xml version="1.0" encoding="utf-8"?>
<!-- Generator: Adobe Illustrator 19.1.0, SVG Export Plug-In . SVG Version: 6.00 Build 0)  -->
<svg version="1.1" id="Layer_1" xmlns="http://www.w3.org/2000/svg" xmlns:xlink="http://www.w3.org/1999/xlink" x="0px" y="0px"
	 viewBox="0 0 612 792" style="enable-background:new 0 0 612 792;" xml:space="preserve">
<style type="text/css">
	.st0{fill-rule:evenodd;clip-rule:evenodd;}
	.st1{fill-rule:evenodd;clip-rule:evenodd;fill:none;}
</style>
<g>
	<path d="M675.2,523.6c-67-9.9-89.5-83.5-121.6-134.6c-34.7-55.1-77.1-103.5-147.7-76.5c49.7,28.3,56.9,121.5-10.2,128
		c-65.5,6.3-81-94.4-3.9-129.1c-51.8-25.5-81.8,5.5-122.7,34.6c-32.9,23.4-66.6,43.6-103.6,28.1c-36.5-15.3-64.8-28.1-87.8-31.3
		c-18.3-2.6-33.1-0.1-46.1,9.4c3.6,0.9,6.7,2.1,9.3,3.6c27,15.1-2.2,45.5-20.8,26.1c-6.2-6.5-6.9-15.8,0.4-23.6c1.5-1.6,3-3,4.5-4.4
		c-9.6-1.1-18,1-27.3,1.8c-16.1,1.3-45.4-2-52.3-18.5c11.2,15.4,34.7,17,52.1,15.6c10.4-0.8,19.8-3.1,30.4-1.4
		C42,340.3,58.1,337.2,78.1,340c23.3,3.3,51.8,14.5,88.5,29.9c35.6,14.9,66.2-6.9,98.4-29.8c38.6-27.5,70.3-64.5,134.1-32.1
		c79.9-39,135.5,5.1,182.9,70.5c23.2,32.1,54.2,72.1,93.3,75.4C675.2,454.9,675.2,522.6,675.2,523.6L675.2,523.6z M398.5,315.6
		c-71.7,29.4-57.6,116.8-2.5,110.5c25.6-2.9,37.4-22.4,35.2-48.2C429.1,353.3,417.2,333,398.5,315.6L398.5,315.6z M28.8,354.5
		c-14.4,11.4-10.8,32.1,9.3,30.3c11.3-1,17.6-17.5,1.5-26.5C36.6,356.6,33,355.3,28.8,354.5L28.8,354.5z"/>
	<path d="M-23.1,464.3c22.5,23.5,35,59.8,51,88.1c25.3,44.4,56.6,84.1,110.7,66.3c-37.2-24.3-40.9-97.2,10.2-99.2
		c49.8-2,59.7,77.2,0.5,100.7c38.9,22.2,62.2-0.6,93.8-21.4c25.4-16.8,51.4-31,79.2-17.2c27.4,13.6,48.7,24.8,66.1,28.4
		c13.8,2.8,25.2,1.6,35.2-5.2c-2.7-0.8-5-1.9-7-3.2c-20.2-13,2.5-35.4,16.3-19.4c4.6,5.3,5,12.6-0.8,18.4c-1.2,1.2-2.3,2.2-3.5,3.2
		c7.2,1.3,13.7,0,20.8-0.1c12.2-0.3,34.4,3.6,39.4,16.7c-8.2-12.5-26-14.8-39.3-14.5c-7.9,0.2-15.1,1.6-23.1-0.3
		c-10.9,8.1-23.2,9.7-38.3,6.6c-17.6-3.6-39-13.6-66.6-27.3c-26.8-13.2-50.4,2.4-75.3,18.8c-29.9,19.7-54.6,47.1-102.4,19
		C82.3,649.3,41,612.4,6.2,559.3c-8.3-12.7-18.1-27.1-29.3-38.9V464.3L-23.1,464.3z M144.4,616.6c55-19.6,46-88.3,4-85.9
		c-19.5,1.1-28.9,15.8-27.7,35.9C121.8,585.9,130.5,602.2,144.4,616.6L144.4,616.6z M425.9,603c11.2-8.2,8.8-24.5-6.5-24
		c-8.6,0.2-13.7,12.8-1.7,20.6C420,601,422.7,602.2,425.9,603L425.9,603z"/>
	<path d="M-23.1,606.8c18.9,28.8,42.8,50.3,80.1,38c-30.1-19.7-33.1-78.7,8.2-80.3c40.3-1.6,48.3,62.5,0.4,81.5
		c31.5,18,50.4-0.5,75.9-17.3c20.6-13.6,41.6-25.1,64.1-13.9c22.2,11,39.4,20.1,53.5,22.9c11.2,2.3,20.4,1.3,28.5-4.2
		c-2.2-0.7-4.1-1.6-5.7-2.6c-16.4-10.5,2-28.6,13.2-15.7c3.7,4.3,4,10.2-0.6,14.9c-0.9,0.9-1.9,1.8-2.8,2.6c5.9,1,11.1,0,16.8-0.1
		c9.9-0.2,27.9,2.9,31.9,13.6c-6.6-10.1-21-12-31.8-11.8c-6.4,0.1-12.2,1.3-18.7-0.2c-8.8,6.6-18.8,7.9-31,5.4
		c-14.3-2.9-31.6-11-53.9-22.1c-21.7-10.7-40.8,1.9-60.9,15.2c-24.2,15.9-44.2,38.1-82.9,15.3c-34.8,15.1-61.6,5.1-84.2-17V606.8
		L-23.1,606.8z M61.7,643.1c44.5-15.9,37.2-71.5,3.2-69.5c-15.8,0.9-23.3,12.8-22.4,29.1C43.4,618.3,50.4,631.4,61.7,643.1
		L61.7,643.1z M289.5,632.2c9-6.7,7.1-19.8-5.3-19.5c-7,0.2-11.1,10.4-1.3,16.7C284.7,630.5,286.9,631.5,289.5,632.2L289.5,632.2z"
		/>
	<path class="st0" d="M-67.2,315.3c-1.8,9.6-0.2,22.2,13.7,23.5C-51.8,322.5-62.7,329.4-67.2,315.3L-67.2,315.3z"/>
	<path class="st0" d="M-48.6,370c9.8,0.7,22.1-2.3,21.8-16.3C-43.2,353.9-35.1,363.9-48.6,370L-48.6,370z"/>
	<path class="st0" d="M-7.8,329.5c-0.9,9.7,1.9,22.1,15.9,22.1C8.2,335.2-1.9,343.1-7.8,329.5L-7.8,329.5z"/>
	<path class="st0" d="M109,370.6c9.2,3.3,21.9,3.6,25.3-9.9C118.4,356.5,123.6,368.3,109,370.6L109,370.6z"/>
	<path class="st0" d="M96.4,279.6c-9.7,1.6-20.9,7.5-17.4,20.9C95,296.5,84.7,288.7,96.4,279.6L96.4,279.6z"/>
	<path class="st0" d="M190.8,251.5c-6.4,7.4-11.3,19.1,0,27.2C200.5,265.5,187.6,266,190.8,251.5L190.8,251.5z"/>
	<path class="st0" d="M258.2,415.2c2.2-9.5,1-22.2-12.8-24C243.1,407.5,254.2,401,258.2,415.2L258.2,415.2z"/>
	<path class="st0" d="M316.6,403.2c9.8,0.4,22-3,21.3-16.9C321.5,386.9,329.9,396.7,316.6,403.2L316.6,403.2z"/>
	<path class="st0" d="M360.7,656.5c-10.2,1.6-23.3-0.7-24.1-15.7C353.7,639.6,346,651,360.7,656.5L360.7,656.5z"/>
	<path class="st0" d="M574.8,189.1c-9.1-3.5-21.8-4.2-25.6,9.2C565,202.9,560.1,191,574.8,189.1L574.8,189.1z"/>
	<path class="st0" d="M547.4,234.2c-9.7,1.5-20.9,7.4-17.4,20.9C545.9,251.1,535.7,243.2,547.4,234.2L547.4,234.2z"/>
	<path class="st0" d="M515.9,201.2c-4.1,8.9-5.7,21.4,7.5,26.2C529,211.9,516.8,216,515.9,201.2L515.9,201.2z"/>
	<path class="st0" d="M414.9,275.5c0.3,9.8,4.7,21.7,18.6,19.9C431.5,279.1,422.4,288.2,414.9,275.5L414.9,275.5z"/>
	<path class="st0" d="M302.9,283c1.9,9.6,8.2,20.6,21.6,16.6C319.8,283.8,312.4,294.4,302.9,283L302.9,283z"/>
	<path class="st0" d="M218.3,280.7c-1.9,9.6-0.3,22.2,13.6,23.6C233.6,288,222.7,294.8,218.3,280.7L218.3,280.7z"/>
	<path class="st0" d="M154.9,338.1c-5.4,8.1-8.8,20.4,3.5,27C166.2,350.7,153.6,352.8,154.9,338.1L154.9,338.1z"/>
	<path class="st0" d="M181.1,311.4c8.9,4,21.5,5.4,26.1-7.8C191.7,298.1,195.9,310.3,181.1,311.4L181.1,311.4z"/>
	<path class="st0" d="M214.7,402.3c9,3.8,21.7,4.8,25.8-8.6C224.9,388.7,229.4,400.8,214.7,402.3L214.7,402.3z"/>
	<path class="st0" d="M415.1,633.3c-10.3-0.7-22.6-5.9-20.2-20.7C411.9,615.3,402,624.7,415.1,633.3L415.1,633.3z"/>
	<path class="st0" d="M473.2,583.2c-1.4,10.4-7.2,22.7-21.5,19.3C455.5,585.3,464,596,473.2,583.2L473.2,583.2z"/>
	<path class="st0" d="M240,572c6.2,8.4,10.6,21.3-1.9,29.2C228.9,586.3,242.4,587.7,240,572L240,572z"/>
	<path class="st0" d="M203.3,652.9c-10.3,0-22.9-4.3-21.6-19.2C199,635.2,189.7,645.2,203.3,652.9L203.3,652.9z"/>
	<path class="st0" d="M286.8,353.5c8.3-5.1,16.5-14.8,8.2-25.9C281.8,337.3,294.2,340.7,286.8,353.5L286.8,353.5z"/>
	<path d="M129.8,355.4c-6.5-2.2-12.2-4.5-16.8-7.2c-8.6-5.1-14-10.8-16.3-19.2c5,1.3,9.4,2,13.8-2.5c2.7-2.8,3.3-8,0.7-11.4
		c-3.5-4.4-9-4-12.4-1.7c-3.9,2.5-5.4,7.6-4.2,13.1c-11-2.2-22.9-12.3-13.8-28.5c-11.4,16.7,2.4,27.6,14.2,30.5
		c2.2,9.5,7.8,15.4,17.3,21c4.6,2.7,10,5.1,16.4,7.4L129.8,355.4L129.8,355.4z M96.1,326.9c-1.2-5.2,0.8-10.5,4.2-12.5
		c2.7-1.6,7.3-1.6,9.7,1.8c1.7,2.5,1.3,6.8-1.8,9.4C103.9,329.3,99,327.7,96.1,326.9L96.1,326.9z"/>
	<path d="M348.1,594.2c3.4,1.2,6.5,2.1,9.3,2.4c5.2,0.7,9.3,0,13-2.9c-2.5-1.1-4.6-2.2-5-5.6c-0.2-2.1,1.2-4.5,3.4-5.1
		c2.9-0.7,5,1.2,5.7,3.3c0.8,2.4-0.2,5-2.4,7c5.3,2.7,13.5,2.3,14.9-7.6c-0.6,10.9-9.9,11-15.7,8.4c-4,3.4-8.2,4-13.9,3.3
		c-2.8-0.4-5.8-1.1-9.2-2.2L348.1,594.2L348.1,594.2z M371.2,593.1c2.2-1.8,3-4.7,2.3-6.7c-0.6-1.6-2.5-3.1-4.6-2.4
		c-1.5,0.5-2.7,2.5-2.3,4.6C367.2,591.6,369.8,592.5,371.2,593.1L371.2,593.1z"/>
	<path d="M312.3,580.8c3.9,1.4,7.3,2.8,10,4.5c5.1,3.1,8.3,6.7,9.7,11.8c-3-0.8-5.6-1.3-8.3,1.5c-1.6,1.7-2,4.9-0.5,7
		c2.1,2.7,5.3,2.5,7.4,1.1c2.3-1.5,3.3-4.6,2.6-8c6.6,1.4,13.6,7.6,8.1,17.5c6.9-10.2-1.3-16.9-8.4-18.7c-1.3-5.8-4.6-9.5-10.2-12.9
		c-2.7-1.7-6-3.2-9.7-4.6L312.3,580.8L312.3,580.8z M332.2,598.4c0.7,3.2-0.5,6.4-2.6,7.6c-1.6,1-4.4,0.9-5.8-1.2
		c-1-1.5-0.7-4.2,1.1-5.8C327.6,596.9,330.5,597.9,332.2,598.4L332.2,598.4z"/>
	<path d="M288,330.4c-7.5,5.5-13.7,10.7-18.5,16c-8.9,10-13.5,19.5-13.1,31.1c5.9-3.7,11.2-6.4,18.7-2.4c4.6,2.4,7.5,8.9,5.5,14.2
		c-2.7,7-9.8,8.7-15.1,7.2c-6-1.7-10-7.5-10.7-15c-13.2,7.2-24.3,25-6.1,41.9c-21.3-16.7-8.1-36.2,5.8-44.7
		c-1.1-13,3.7-22.9,13.5-33.8c4.8-5.3,10.7-10.6,17.8-16.1L288,330.4L288,330.4z M256.7,380.3c0.6,7.1,5.2,13.1,10.4,14.2
		c4.1,0.9,10-0.9,11.6-6.3c1.2-3.9-1.1-9.2-6.1-11.3C265.6,374.1,260,378.1,256.7,380.3L256.7,380.3z"/>
	<path d="M334.3,297.8c-12.4,5-23.5,8.7-33.7,10.5c-19,3.4-34.2,1.8-48.1-7.6c9-4.4,16.4-8.8,17.1-21.1c0.5-7.5-5.2-16-13.3-17.5
		c-10.6-2-18.1,5.4-20.3,13.1c-2.5,8.6,1.6,18,10.3,24.6c-18.9,10.7-49.1,10.8-56.1-24.3c4.4,38.8,38.3,37.4,59.3,26.8
		c15.2,11.2,30.9,12.8,51.7,9.1c10.1-1.8,21.2-5.1,33.4-9.7L334.3,297.8L334.3,297.8z M249.2,298.4c-8.3-6-12.1-16.4-9.6-23.6
		c2-5.8,8.7-11.5,16.5-9.5c5.6,1.5,10.5,8.3,9.2,16.1C263.6,292.1,254.4,295.9,249.2,298.4L249.2,298.4z"/>
	<path d="M588.9,388.1c-11.9-13.3-21.5-25.6-28.4-37.6c-12.9-22.3-17.7-42.1-12.1-63.9c9.6,9.3,18.4,16.5,34.2,12
		c9.6-2.8,17.7-13.7,16-24.6c-2.2-14.2-15-20.3-25.5-19.6c-11.9,0.8-21.9,10.1-26.2,24c-21.9-18.9-35.7-56.8,5.3-81.5
		c-46.8,23-29.7,64.9-6.9,86.5c-7.2,24.1-2.2,44.6,11.9,69c6.9,11.9,16,24.3,27.2,37.5L588.9,388.1L588.9,388.1z M549.8,281.5
		c3.9-13.1,15.1-22.5,25.3-22.6c8.2-0.1,18.4,5.7,19.4,16.4c0.7,7.7-5.8,16.9-16.1,18.8C564.2,296.7,555.3,286.9,549.8,281.5
		L549.8,281.5z"/>
</g>
<rect id="_x3C_Slice_x3E_" x="-68" y="186" class="st1" width="744" height="472"/>
</svg>
