<?xml version="1.0" encoding="utf-8"?>
<!-- Generator: Adobe Illustrator 19.1.0, SVG Export Plug-In . SVG Version: 6.00 Build 0)  -->
<svg version="1.1" id="Layer_1" xmlns="http://www.w3.org/2000/svg" xmlns:xlink="http://www.w3.org/1999/xlink" x="0px" y="0px"
	 viewBox="0 0 800 650" style="fill:rgba(70, 57, 37, 0.5);enable-background:new 0 0 800 650;" xml:space="preserve">
<g>
	<path d="M856,389.2c-76.3-11.3-102-95.4-138.7-153.7c-39.5-62.9-87.9-118.2-168.3-87.4c56.7,32.4,64.9,138.8-11.6,146.2
		c-74.6,7.2-92.3-107.9-4.5-147.4c-59-29.1-93.3,6.3-139.8,39.5c-37.4,26.8-75.7,49.8-118,32.1c-41.6-17.5-73.9-32.1-100-35.8
		c-20.8-2.9-37.8-0.1-52.6,10.7c4,1,7.6,2.4,10.6,4.1c30.7,17.2-2.5,52-23.8,29.8c-7.1-7.4-7.9-18.1,0.5-27c1.6-1.8,3.4-3.5,5.2-5
		c-10.9-1.2-20.6,1.2-31.2,2c-18.3,1.4-51.7-2.2-59.6-21.1c12.7,17.6,39.5,19.4,59.4,17.9c11.9-0.9,22.6-3.6,34.7-1.6
		c16-12.8,34.3-16.3,57.2-13.1c26.6,3.7,59,16.5,100.8,34.1c40.6,17.1,75.5-7.8,112.2-34.1c44-31.5,80.1-73.7,152.8-36.7
		c91-44.5,154.4,5.9,208.4,80.6c26.5,36.6,61.7,82.3,106.3,86.1C856,310.7,856,388,856,389.2L856,389.2z M540.7,151.6
		c-81.7,33.5-65.6,133.4-2.8,126.2c29.2-3.3,42.7-25.6,40.1-55C575.5,194.6,562,171.5,540.7,151.6L540.7,151.6z M119.3,196
		c-16.5,13-12.2,36.6,10.6,34.6c12.8-1.1,20.1-20,1.8-30.3C128.2,198.5,124.1,197,119.3,196L119.3,196z"/>
	<path d="M-207.6,320.8c36.8,37.2,57.2,94.7,83.4,139.4c41.4,70.4,92.6,133.1,180.9,104.9C-4.2,526.6-10.3,411.2,73.2,408
		c81.4-3.1,97.6,122.3,0.9,159.4c63.5,35.2,101.7-0.9,153.4-33.9c41.5-26.5,84-49,129.5-27.2c44.8,21.5,79.6,39.3,108,44.9
		c22.6,4.5,41.2,2.5,57.5-8.3c-4.4-1.3-8.2-3.1-11.5-5.1c-33-20.5,4.1-56,26.7-30.7c7.5,8.5,8.1,20-1.3,29.1
		c-1.9,1.8-3.8,3.5-5.8,5.1c11.9,2,22.3,0,34-0.2c20-0.4,56.2,5.7,64.3,26.5c-13.4-19.8-42.5-23.5-64.2-23
		c-12.9,0.3-24.6,2.5-37.9-0.5c-17.8,12.8-37.9,15.4-62.7,10.5c-28.8-5.7-63.9-21.6-108.9-43.2c-43.8-21-82.4,3.7-123.1,29.7
		c-48.8,31.2-89.3,74.5-167.5,30c-100,42.5-167.6-15.9-224.4-99.9c-13.6-20.2-29.5-42.8-47.9-61.5V320.8L-207.6,320.8z M66.1,561.8
		c90-31.1,75.2-139.9,6.5-136c-31.9,1.8-47.2,25-45.2,56.9C29.2,513.2,43.4,539,66.1,561.8L66.1,561.8z M526.2,540.4
		c18.2-13.1,14.3-38.8-10.7-38.1c-14,0.4-22.3,20.3-2.7,32.6C516.5,537.2,521,539.1,526.2,540.4L526.2,540.4z"/>
	<path d="M-207.6,546.3c30.9,45.7,70,79.6,130.9,60.2c-49.2-31.2-54.1-124.6,13.4-127.2c65.9-2.5,79,98.9,0.7,129
		c51.4,28.5,82.3-0.7,124.1-27.4c33.6-21.5,68-39.7,104.8-22c36.2,17.4,64.5,31.8,87.4,36.3c18.2,3.6,33.3,2,46.6-6.7
		c-3.5-1.1-6.7-2.5-9.3-4.1c-26.7-16.6,3.3-45.3,21.5-24.9c6.1,6.8,6.6,16.2-1.1,23.6c-1.5,1.5-3.1,2.9-4.6,4.1
		c9.5,1.6,18.1,0,27.5-0.2c16.1-0.3,45.5,4.6,52.1,21.5c-10.8-16-34.3-19-52-18.6c-10.5,0.2-20,2-30.6-0.4
		c-14.3,10.4-30.7,12.5-50.7,8.5c-23.3-4.6-51.6-17.4-88.1-34.9c-35.4-17-66.7,3-99.6,24.1C25.9,612.4-6.7,647.5-70,611.5
		c-56.8,24-100.7,8-137.6-27V546.3L-207.6,546.3z M-69.2,603.9c72.8-25.1,60.8-113.2,5.3-110.1c-25.8,1.4-38.1,20.2-36.6,46
		C-99,564.5-87.5,585.4-69.2,603.9L-69.2,603.9z M303.2,586.5c14.8-10.6,11.6-31.4-8.6-30.8c-11.4,0.3-18.1,16.5-2.2,26.4
		C295.4,583.9,298.9,585.5,303.2,586.5L303.2,586.5z"/>
	<path d="M9.9,151.3c-2.1,11-0.2,25.3,15.6,26.8C27.4,159.5,15.1,167.4,9.9,151.3L9.9,151.3z"/>
	<path d="M31.1,213.7c11.2,0.8,25.2-2.7,24.8-18.6C37.2,195.3,46.5,206.8,31.1,213.7L31.1,213.7z"/>
	<path d="M77.6,167.5c-1.1,11.1,2.2,25.2,18.1,25.2C95.9,174,84.3,183,77.6,167.5L77.6,167.5z"/>
	<path d="M210.7,214.5c10.5,3.7,24.9,4.1,28.8-11.3C221.5,198.3,227.4,211.8,210.7,214.5L210.7,214.5z"/>
	<path d="M223.6,333.9c-14-1.7-30.1-7.8-25.1-22C221.5,316,206.8,324.3,223.6,333.9L223.6,333.9z"/>
	<path d="M111.7,56.9c7.2-6.8,12.9-17.5,0-25C100.7,44.1,115.3,43.7,111.7,56.9L111.7,56.9z"/>
	<path d="M367.4,304.4c3.2-15.1,1.5-35.1-18.8-38C345.1,292.1,361.5,281.8,367.4,304.4L367.4,304.4z"/>
	<path d="M447.3,230.5c11.2,0.5,25.1-3.4,24.2-19.3C452.9,211.9,462.5,223.1,447.3,230.5L447.3,230.5z"/>
	<path d="M419.5,625c-16.6,2.5-38.1-1.1-39.4-24.8C408.2,598.3,395.6,616.4,419.5,625L419.5,625z"/>
	<path d="M683.9,9.5c-10.6-3.1-25.2-3.6-29.5,8C672.5,21.5,666.9,11.1,683.9,9.5L683.9,9.5z"/>
	<path d="M655.1,49.7c-11.4,1.3-24.6,6.4-20.6,18.1C653.4,64.4,641.4,57.5,655.1,49.7L655.1,49.7z"/>
	<path d="M622.8,17.3c-4.6,7.3-6.4,17.8,8.4,21.7C637.5,26.2,623.8,29.5,622.8,17.3L622.8,17.3z"/>
	<path d="M559.3,105.8c0.4,11.2,5.4,24.7,21.2,22.7C578.2,109.9,567.8,120.3,559.3,105.8L559.3,105.8z"/>
	<path d="M431.7,114.4c2.2,11,9.4,23.5,24.6,18.9C450.9,115.3,442.5,127.3,431.7,114.4L431.7,114.4z"/>
	<path d="M80.6,30.1C82.7,21.2,81,9.7,65.3,8.4C63.2,23.4,75.6,17.1,80.6,30.1L80.6,30.1z"/>
	<path d="M263,177.3c-6.2,9.3-10,23.2,4,30.8C275.9,191.7,261.5,194.1,263,177.3L263,177.3z"/>
	<path d="M122.7,1.9c-10-3.7-24.3-4.9-29.6,7.2C110.6,14.2,106,3,122.7,1.9L122.7,1.9z"/>
	<path d="M303.1,303c13.2,6,31.8,7.5,37.8-13.6C318.1,281.5,324.7,300.7,303.1,303L303.1,303z"/>
	<path d="M508.5,588.3c-16.7-1.2-36.9-9.4-32.9-32.8C503.3,559.8,487.1,574.7,508.5,588.3L508.5,588.3z"/>
	<path d="M603.4,509c-2.2,16.5-11.8,35.9-35.2,30.5C574.5,512.3,588.4,529.3,603.4,509L603.4,509z"/>
	<path d="M222.4,491.2c10.1,13.3,17.3,33.7-3.1,46.3C204.2,513.9,226.2,516.2,222.4,491.2L222.4,491.2z"/>
	<path d="M162.4,619.3c-16.8,0-37.5-6.8-35.3-30.4C155.2,591.3,140.2,607.2,162.4,619.3L162.4,619.3z"/>
	<path d="M413.3,194.9c9.5-5.8,18.8-16.9,9.3-29.6C407.7,176.4,421.8,180.2,413.3,194.9L413.3,194.9z"/>
	<path d="M267.8,217.5c-8.9,3.8-16.8,7.8-23.1,12.5c-11.8,8.7-19.3,18.5-22.4,32.9c7-2.3,12.9-3.5,19,4.4c3.7,4.8,4.5,13.8,1,19.5
		c-4.8,7.5-12.4,6.8-17,3c-5.4-4.4-7.5-13.1-5.8-22.5c-15.2,3.8-31.5,21-19,48.8c-15.6-28.7,3.4-47.3,19.6-52.2
		c3-16.4,10.8-26.4,23.7-36c6.4-4.7,13.8-8.7,22.6-12.8L267.8,217.5L267.8,217.5z M221.7,266.1c-1.7,8.9,1,18,5.7,21.3
		c3.8,2.7,10.1,2.7,13.3-3.2c2.4-4.2,1.8-11.7-2.6-16.2C232.3,262,225.7,264.7,221.7,266.1L221.7,266.1z"/>
	<path d="M398.9,526.1c4.2,2,8,3.5,11.4,4c6.4,1.1,11.4,0,15.7-4.8c-3.1-1.8-5.6-3.7-6-9.4c-0.3-3.5,1.4-7.6,4.1-8.6
		c3.5-1.3,6.1,2.1,7,5.6c1,3.9-0.2,8.4-3,11.7c6.5,4.5,16.4,3.8,18.1-12.8c-0.7,18.2-12,18.4-19.1,14c-4.8,5.6-10,6.8-17,5.6
		c-3.4-0.6-7.1-1.9-11.2-3.7L398.9,526.1L398.9,526.1z M427,524.2c2.6-3.1,3.7-7.9,2.7-11.2c-0.8-2.6-3.1-5.2-5.6-4
		c-1.8,0.8-3.3,4.1-2.7,7.7C422.1,521.6,425.3,523.2,427,524.2L427,524.2z"/>
	<path d="M340.4,505.2c6.4,2.2,11.9,4.5,16.3,7.1c8.4,5,13.6,10.6,15.8,18.8c-4.9-1.3-9.2-2.1-13.5,2.3c-2.7,2.7-3.3,7.8-0.8,11
		c3.4,4.3,8.7,3.9,12.1,1.8c3.8-2.4,5.4-7.3,4.2-12.7c10.7,2.2,22.3,12.1,13.3,27.7c11.3-16.1-2.1-26.8-13.6-29.7
		c-2.1-9.2-7.5-15-16.7-20.5c-4.5-2.7-9.8-5-15.9-7.4L340.4,505.2L340.4,505.2z M373,533c1.2,5-0.8,10.2-4.2,12.1
		c-2.7,1.5-7.2,1.5-9.4-1.9c-1.6-2.4-1.2-6.6,1.9-9.1C365.5,530.6,370.3,532.2,373,533L373,533z"/>
	<path d="M414.7,169.2c-10.9,8.6-20.1,16.9-27.1,25.4c-13.2,15.8-19.8,30.9-19.1,49.4c8.6-5.8,16.3-10.1,27.4-3.9
		c6.7,3.9,11,14,8,22.5c-3.9,11.1-14.4,13.7-22.1,11.5c-8.8-2.6-14.7-11.9-15.7-23.9c-19.4,11.4-35.6,39.5-8.9,66.5
		c-31.2-26.5-11.8-57.3,8.5-70.8c-1.5-20.7,5.4-36.2,19.8-53.6c7-8.5,15.7-16.8,26.2-25.5L414.7,169.2L414.7,169.2z M368.7,248.3
		c0.8,11.2,7.7,20.7,15.3,22.5c6.1,1.5,14.5-1.5,17.1-10c1.8-6.1-1.7-14.6-9.1-17.9C381.9,238.6,373.7,245,368.7,248.3L368.7,248.3z
		"/>
	<path d="M-50.7,14.4c14-4.6,26.6-8,38.2-9.6c21.5-3.1,38.7-1.7,54.4,7c-10.2,4.1-18.5,8.1-19.4,19.4c-0.6,6.8,5.8,14.7,15.1,16.1
		c12,1.8,20.6-5,23-12c2.8-7.9-1.8-16.5-11.7-22.6c21.4-9.8,55.6-10,63.5,22.3C107.6-0.7,69.2,0.6,45.4,10.4
		C28.3,0.1,10.5-1.4-13.1,2C-24.5,3.7-37,6.8-50.8,10.9L-50.7,14.4L-50.7,14.4z M45.6,13.8c9.3,5.5,13.7,15,10.9,21.6
		c-2.2,5.3-9.8,10.6-18.7,8.8c-6.4-1.4-11.8-7.6-10.4-14.8C29.3,19.7,39.7,16.2,45.6,13.8L45.6,13.8z"/>
	<path d="M687.5,157.8c-10.6-9.8-19.2-19-25.3-27.8c-11.4-16.5-15.8-31.1-10.8-47.2c8.6,6.9,16.5,12.2,30.5,8.9
		c8.6-2.1,15.8-10.1,14.2-18.2c-2-10.5-13.4-15-22.7-14.5c-10.6,0.6-19.5,7.5-23.3,17.8c-19.5-13.9-31.8-42,4.7-60.2
		c-41.6,17-26.5,48-6.1,64c-6.5,17.8-1.9,33,10.6,51c6.1,8.8,14.2,18,24.2,27.8L687.5,157.8L687.5,157.8z M652.6,79.1
		c3.4-9.7,13.4-16.7,22.5-16.7c7.3-0.1,16.3,4.2,17.3,12.2c0.6,5.7-5.2,12.5-14.3,13.9C665.5,90.3,657.5,83,652.6,79.1L652.6,79.1z"
		/>
	<path d="M-2,437.1c-10.8,5-26.1,6.7-31.6-9.7C-14.8,420.6-19.9,435.7-2,437.1L-2,437.1z"/>
	<path d="M-154.6,412.7c12.8,6.2,24.5,10.8,35,13.1c19.8,4.2,35.5,2.2,50-9.5c-9.3-5.5-16.9-11-17.8-26.2
		c-0.5-9.3,5.4-19.9,13.8-21.8c11.1-2.5,18.8,6.8,21.2,16.2c2.6,10.7-1.6,22.4-10.7,30.6c19.6,13.3,51,13.5,58.3-30.3
		c-4.6,48.3-39.8,46.6-61.5,33.3C-82,432-98.4,434-120,429.4c-10.6-2.3-22-6.4-34.7-12L-154.6,412.7L-154.6,412.7z M-66.1,413.5
		c8.6-7.5,12.6-20.4,10-29.3c-2.1-7.2-9.1-14.3-17.2-11.8c-5.9,1.8-10.8,10.4-9.5,20.1C-81.1,405.6-71.6,410.4-66.1,413.5
		L-66.1,413.5z"/>
	<path d="M632.5,178.4c-9.5-7.9-16.1-19.9,2.8-27.4C649.6,165,629,163.6,632.5,178.4L632.5,178.4z"/>
	<path d="M618.5,279c-12.8,0.5-28.8-3.4-28-19.4C612.2,260.3,601.1,271.5,618.5,279L618.5,279z"/>
	<path d="M689.8,346.1c-10.6,3.2-25.2,3.7-29.5-8.2C678.4,333.7,672.9,344.4,689.8,346.1L689.8,346.1z"/>
	<path d="M629.7,338.1c-4.6-7.5-6.4-18.3,8.4-22.4C644.4,328.9,630.7,325.5,629.7,338.1L629.7,338.1z"/>
	<path d="M694.4,193.3c-10.6,10.1-19.2,19.6-25.3,28.6c-11.4,17-15.8,32-10.8,48.6c8.6-7.1,16.5-12.6,30.5-9.2
		c8.6,2.2,15.8,10.4,14.2,18.8c-2,10.8-13.4,15.5-22.7,14.9c-10.6-0.6-19.5-7.7-23.3-18.3c-19.5,14.3-31.8,43.3,4.7,62
		c-41.7-17.5-26.5-49.5-6.1-65.9c-6.5-18.3-1.9-34,10.6-52.5c6.1-9.1,14.2-18.5,24.2-28.6L694.4,193.3L694.4,193.3z M659.6,274.4
		c3.4,10,13.4,17.2,22.5,17.2c7.3,0.1,16.4-4.3,17.3-12.6c0.6-5.9-5.2-12.9-14.4-14.3C672.4,262.8,664.4,270.3,659.6,274.4
		L659.6,274.4z"/>
	<path d="M174.3,501.8c-2.9-11.8-12.2-25.3-31.9-20.3C149.3,500.9,160.3,488,174.3,501.8L174.3,501.8z"/>
	<path d="M364.5,67.8c-10.6,3.2-25.2,3.7-29.5-8.2C353.1,55.5,347.6,66.2,364.5,67.8L364.5,67.8z"/>
	<path d="M304.4,58.8c-4.6-7.5-6.4-18.3,8.4-22.4C319.1,49.7,305.4,46.3,304.4,58.8L304.4,58.8z"/>
	<path d="M369.1-85.9c-10.6,10.1-19.2,19.6-25.3,28.6c-11.4,17-15.8,32-10.8,48.6c8.6-7.1,16.5-12.6,30.5-9.2
		c8.6,2.2,15.8,10.4,14.2,18.8c-2,10.8-13.4,15.5-22.7,14.9c-10.6-0.6-19.5-7.7-23.3-18.3c-19.5,14.3-31.8,43.3,4.7,62
		c-41.7-17.5-26.5-49.5-6.1-65.9c-6.5-18.3-1.9-34,10.6-52.5c6.1-9.1,14.2-18.5,24.2-28.6L369.1-85.9L369.1-85.9z M334.3-4.9
		c3.4,10,13.4,17.2,22.5,17.2c7.3,0.1,16.4-4.3,17.3-12.6c0.6-5.9-5.2-12.9-14.4-14.3C347.1-16.4,339.1-8.9,334.3-4.9L334.3-4.9z"/>
	<path d="M11.5,610.4c-12.8,0-28.5-5.4-26.8-24C6,588.3-5.4,600.9,11.5,610.4L11.5,610.4z"/>
	<path d="M284.8,505.6c5.9-2.8,11.1-5.8,15.2-9.2c7.8-6.5,12.7-13.7,14.7-24.3c-4.6,1.7-8.5,2.7-12.6-3c-2.5-3.5-3.1-10.1-0.8-14.2
		c3.2-5.6,8.1-5,11.3-2.3c3.5,3.1,5,9.4,3.9,16.4c10-2.8,20.8-15.6,12.4-35.8c10.5,20.8-2,34.7-12.7,38.4c-2,11.9-7,19.4-15.6,26.5
		c-4.2,3.5-9.1,6.5-14.8,9.6L284.8,505.6L284.8,505.6z M315.1,469.6c1.1-6.5-0.8-13.2-3.9-15.6c-2.5-1.9-6.7-1.9-8.8,2.5
		c-1.5,3.1-1.1,8.5,1.8,11.8C308.1,472.7,312.6,470.7,315.1,469.6L315.1,469.6z"/>
	<path d="M331.5,404.2c5.1,8.6,8.8,21.8-1.6,29.9C322.3,418.9,333.5,420.4,331.5,404.2L331.5,404.2z"/>
	<path d="M356.4,471.1c-2.1-8.6-8.9-18.3-23.1-14.7C338.3,470.4,346.3,461.1,356.4,471.1L356.4,471.1z"/>
	<path d="M-103.8,393.3c1.1,13.7-2.4,31.1-19.4,31.1C-123.3,401.3-110.9,412.4-103.8,393.3L-103.8,393.3z"/>
	<path d="M-21.7,383.6c-6.2,9.3-10,23.2,4,30.8C-8.7,398-23.2,400.4-21.7,383.6L-21.7,383.6z"/>
	<path d="M-12.6,460.7c0.4,11.2,5.4,24.7,21.2,22.7C6.3,464.8-4,475.2-12.6,460.7L-12.6,460.7z"/>
	<path d="M521.3,327.7c10.1-9.6,17.3-24.4-3.1-33.5C503.2,311.3,525.2,309.7,521.3,327.7L521.3,327.7z"/>
</g>
</svg>
